<svg xmlns="http://www.w3.org/2000/svg" xmlns:xlink="http://www.w3.org/1999/xlink" viewBox="0 0 72.6 16.26"><defs><style>.cls-1{fill:none;}.cls-2{opacity:0.5;}.cls-3{clip-path:url(#clip-path);}.cls-4{fill:#fff;fill-rule:evenodd;}.cls-5{fill:#594d4d;}</style><clipPath id="clip-path"><rect class="cls-1" x="-289.9" y="104.48" width="1160" height="355"/></clipPath></defs><title>アートボード 29</title><g id="graphic"><g class="cls-2"><g class="cls-3"><polygon class="cls-4" points="13.21 22.54 13.36 26.55 14 29.9 14.98 32.6 16.27 34.76 17.79 36.46 19.52 37.71 21.29 38.71 23.16 39.41 24.99 39.91 26.71 40.36 28.24 40.71 29.57 41.16 30.6 41.71 31.29 42.46 31.49 43.41 31.24 44.77 30.85 45.62 30.46 46.27 30.06 46.95 29.62 47.48 29.12 47.48 28.58 47.05 28.04 46.63 27.4 46.25 26.66 45.81 25.87 45.38 24.99 44.98 24 44.62 22.97 44.32 21.79 44.11 20.02 44.06 18.1 44.11 18.1 44.87 18.64 45.62 18.98 46.32 19.25 46.97 19.55 47.57 19.88 48.12 20.34 48.62 20.89 49.07 19.46 49.82 18.38 50.62 17.6 51.52 17.1 52.42 16.86 53.37 16.91 54.37 17.15 55.32 17.64 56.28 18.53 55.17 19.52 54.42 20.6 53.82 21.73 53.47 22.92 53.22 24.1 53.02 25.28 52.92 26.46 52.77 27.6 52.52 28.63 52.17 29.62 51.67 30.46 50.92 31.19 49.92 31.79 48.62 32.18 46.87 32.43 44.77 32.33 42.91 31.84 41.51 31 40.51 29.91 39.71 28.53 39.16 27 38.71 25.38 38.31 23.65 37.86 21.93 37.26 20.26 36.51 18.63 35.41 17.2 33.95 15.97 32.1 14.98 29.7 14.29 26.65 14 22.94 14.05 21.39 14.29 19.89 14.64 18.44 15.18 16.99 15.87 15.64 16.66 14.34 17.6 13.09 18.63 11.88 19.76 10.73 21 9.68 22.33 8.73 23.75 7.83 25.23 7.03 26.76 6.28 28.34 5.68 29.96 5.13 31.59 4.73 33.26 4.43 34.94 4.23 36.66 4.13 38.34 4.18 40.01 4.38 41.64 4.68 43.27 5.13 44.84 5.68 46.37 6.43 47.8 7.33 49.23 8.33 50.51 9.53 51.74 10.88 52.87 12.44 53.91 14.13 55.48 17.34 56.67 20.44 57.5 23.5 58 26.45 58.2 29.3 58.1 32.05 57.75 34.71 57.11 37.31 56.22 39.81 55.14 42.26 53.86 44.62 52.38 46.87 50.76 49.07 49.03 51.17 47.11 53.22 45.14 55.17 42.58 57.48 39.97 59.63 37.25 61.73 34.54 63.73 31.84 65.58 29.18 67.38 26.61 69.04 24.2 70.64 21.88 72.14 19.81 73.54 17.94 74.89 16.31 76.14 15.03 77.3 14.05 78.35 13.41 79.35 13.21 80.3 14.1 79.25 15.03 78.3 15.97 77.34 16.91 76.49 17.84 75.69 18.78 74.94 19.76 74.24 20.75 73.59 21.73 72.94 22.72 72.34 23.75 71.74 24.79 71.14 25.77 70.59 26.81 70.04 27.84 69.54 28.93 68.99 29.96 68.44 31 67.89 32.08 67.28 33.12 66.74 34.2 66.09 35.28 65.43 36.32 64.78 37.4 64.03 38.49 63.28 39.57 62.48 40.66 61.58 41.69 60.68 42.77 59.68 43.86 58.63 44.89 57.48 45.98 56.28 48.05 53.82 50.02 51.42 51.89 49.07 53.61 46.72 55.14 44.41 56.52 42.06 57.65 39.71 58.54 37.26 59.18 34.76 59.57 32.15 59.62 29.4 59.38 26.55 58.79 23.55 57.8 20.34 56.47 16.89 54.7 13.29 53.66 11.48 52.48 9.88 51.25 8.43 49.92 7.13 48.49 6.03 46.96 5.03 45.43 4.23 43.81 3.53 42.18 2.98 40.46 2.58 38.78 2.45 37.01 2.48 35.28 2.48 33.56 2.45 31.84 2.69 30.11 3.01 28.44 3.49 26.81 4.09 25.23 4.78 23.71 5.63 22.23 6.53 20.85 7.58 19.56 8.68 18.33 9.88 17.25 11.18 16.27 12.58 15.38 14.04 14.64 15.59 14.05 17.24 13.6 18.94 13.31 20.69 13.21 22.54 13.21 22.54"/><polygon class="cls-4" points="56.72 20.79 56.27 20.19 55.78 19.54 55.24 18.94 54.7 18.39 54.1 17.89 53.51 17.44 52.92 17.09 52.33 16.68 51.74 16.48 51.15 16.48 50.6 16.73 50.06 17.09 49.57 17.61 49.13 18.38 48.74 19.29 48.39 20.49 47.7 19.69 47.26 18.84 47.01 17.99 46.96 17.14 47.06 16.34 47.35 15.59 47.8 14.89 48.34 14.34 48.98 13.94 49.77 13.73 50.6 13.69 51.49 13.84 52.43 14.29 53.42 14.94 54.35 15.94 55.34 17.24 56.72 20.79 56.72 20.79"/><polygon class="cls-4" points="57.01 14.79 57.41 11.68 57.55 6.48 57.5 0.72 57.16 -4.03 57.11 -4.33 57.01 -4.58 56.81 -4.78 56.62 -4.88 56.27 -4.83 55.83 -4.58 55.19 -4.13 54.45 -3.38 54.01 -2.93 53.51 -2.38 53.02 -1.83 52.53 -1.18 52.13 -0.43 51.74 0.42 51.44 1.32 51.3 2.33 51.25 3.48 51.4 4.68 51.74 6.03 52.28 7.53 53.02 9.13 54.06 10.88 55.39 12.74 57.01 14.79 57.01 14.79"/><polygon class="cls-4" points="58.69 23.45 58.84 22.24 58.74 20.79 58.49 19.09 58 17.14 57.31 15.09 56.32 12.93 55.14 10.63 53.66 8.33 52.64 6.48 52.1 4.53 52.1 2.53 52.64 0.62 53.4 -1.08 54.37 -2.53 55.42 -3.58 56.56 -4.18 56.46 -2.78 56.37 -1.18 56.42 0.42 56.71 1.82 57.01 4.08 57.06 7.43 56.91 10.73 56.72 12.79 57.31 14.19 58.05 11.53 58.34 8.58 58.29 5.38 58.1 2.22 57.85 -0.73 57.8 -3.23 58 -5.18 58.69 -6.33 58.15 -6.18 57.45 -5.93 56.67 -5.58 55.83 -5.08 54.99 -4.53 54.1 -3.83 53.27 -3.03 52.53 -2.13 51.84 -1.13 51.3 -0.08 50.9 1.12 50.7 2.38 50.76 3.73 51.05 5.18 51.59 6.73 52.48 8.33 54.35 11.33 55.78 13.84 56.77 15.89 57.45 17.59 57.85 18.94 58 20.04 57.95 20.94 57.8 21.74 58.69 23.45 58.69 23.45"/><polygon class="cls-4" points="41.3 -5.28 40.66 -5.98 39.97 -6.58 39.23 -7.08 38.39 -7.43 37.5 -7.68 36.61 -7.83 35.73 -7.88 34.84 -7.79 33.95 -7.33 33.16 -6.78 32.43 -6.13 31.74 -5.43 31.14 -4.63 30.65 -3.78 30.21 -2.88 29.86 -1.98 29.77 -2.43 29.62 -2.83 29.47 -3.18 29.22 -3.58 28.98 -3.88 28.73 -4.18 28.39 -4.85 27.99 -5.52 27.99 -5.52 27.99 -5.52 27.94 -5.52 27.94 -5.52 28.24 -5.25 28.48 -5.22 28.68 -5.35 28.83 -5.59 29.04 -6.31 29.1 -6.98 29.1 -7.74 29.04 -8.44 28.91 -9.19 28.67 -9.89 28.48 -10.59 28.24 -11.29 28.43 -11.79 28.73 -12.24 29.12 -12.59 29.62 -12.89 29.77 -12.99 29.98 -13.14 30.1 -13.29 30.1 -13.49 29.93 -13.69 29.75 -14.16 29.57 -14.52 29.37 -14.52 29.07 -14.11 28.83 -13.85 28.58 -13.62 28.34 -13.43 28.29 -13.98 28.19 -14.52 28.14 -14.52 28.04 -13.96 27.45 -13.45 26.81 -13.02 26.17 -12.6 25.58 -12.17 25.04 -11.7 24.54 -11.19 24.15 -10.64 23.9 -9.99 23.16 -10.54 22.33 -10.99 21.49 -11.29 20.6 -11.49 19.66 -11.59 18.73 -11.54 17.84 -11.39 16.95 -11.09 15.87 -10.54 14.89 -9.79 14.1 -8.88 13.41 -7.88 12.96 -6.78 12.67 -5.63 12.62 -4.38 12.82 -3.13 13.06 -2.48 13.41 -1.83 13.85 -1.18 14.34 -0.68 14.94 -0.23 15.57 0.2 16.27 0.48 16.95 0.48 17.1 0.48 17.1 0.12 17.1 0.02 17.1 -0.08 17.05 -0.28 17 -0.52 16.91 -0.52 16.86 -0.52 16.12 -0.58 15.48 -0.8 14.98 -1.17 14.54 -1.7 14.14 -2.24 13.9 -2.94 13.75 -3.63 13.65 -4.33 13.8 -4.83 14.05 -5.28 14.29 -5.68 14.64 -6.03 14.98 -6.38 15.38 -6.63 15.82 -6.83 16.31 -6.93 17 -6.98 17.69 -6.88 18.33 -6.68 18.98 -6.38 19.52 -5.98 20.01 -5.53 20.45 -4.98 20.8 -4.38 20.45 -3.73 20.16 -3.03 19.91 -2.33 19.81 -1.63 19.76 -0.93 19.81 -0.18 19.96 0.52 20.26 1.17 20.3 0.83 20.35 0.48 20.45 0.48 20.55 0.48 20.55 0.48 20.55 0.48 20.55 0.48 20.55 0.48 20.6 0.48 20.65 0.93 20.65 0.93 20.7 1.25 20.9 1.48 21.09 1.48 21.29 1.32 21.39 1.1 21.54 0.74 21.68 0.68 22.13 0.53 22.57 0.42 23.02 0.38 23.46 0.32 23.9 0.23 24.34 0.12 24.79 -0.08 25.18 -0.33 25.63 -0.73 26.02 -1.18 26.41 -1.68 26.71 -2.18 27 -2.73 26.6 -3.28 26.1 -3.83 26.1 -5.52 27.35 -5.52 27.45 -5.52 27.5 -5.52 27.55 -5.52 27.5 -5.52 27.5 -5.52 27.5 -5.52 27.5 -5.52 26.1 -4.33 26.1 -4.18 26.85 -4.08 27.3 -3.98 27.87 -3.68 28.3 -3.38 28.64 -3.03 28.91 -2.63 29.11 -2.18 29.32 -1.73 29.47 -1.28 29.57 -0.83 29.47 0.02 29.42 0.92 29.47 1.77 29.57 2.67 29.77 3.53 30.06 4.38 30.41 5.23 30.9 6.03 31.29 6.58 31.79 7.03 32.28 7.48 32.82 7.83 33.41 8.13 34.05 8.33 34.69 8.48 35.33 8.53 35.63 8.48 35.88 8.33 36.06 8.08 36.1 7.78 36.1 7.68 36.1 7.63 36.06 7.53 36.02 7.48 35.92 7.48 35.83 7.48 35.78 7.53 35.94 7.63 36.1 7.73 36.1 7.78 35.84 7.63 35.58 7.48 34.94 7.48 34.35 7.58 33.76 7.48 33.21 7.23 32.67 6.9 32.23 6.47 31.79 6.02 31.44 5.47 30.95 4.58 30.6 3.58 30.25 2.63 30.1 1.62 30.1 0.62 30.35 -0.38 30.65 -1.38 31.02 -2.33 31.38 -3.03 31.78 -3.73 32.23 -4.38 32.72 -5.03 33.31 -5.58 33.9 -6.08 34.59 -6.53 35.28 -6.88 36.17 -6.83 37.06 -6.68 37.9 -6.48 38.73 -6.13 39.52 -5.68 40.16 -5.08 40.66 -4.38 41 -3.53 41.1 -2.78 41 -1.98 40.66 -1.28 40.06 -0.68 39.97 -0.52 39.82 -0.52 39.72 -0.52 39.57 -0.68 39.42 -0.78 39.27 -0.75 39.18 -0.67 39.08 -0.52 39.03 -0.37 39.08 -0.23 39.18 -0.13 39.32 -0.03 39.62 0.12 39.91 0.17 40.21 0.12 40.51 0.02 40.75 -0.13 41 -0.33 41.2 -0.58 41.4 -0.83 41.89 -1.93 42.08 -3.08 41.89 -4.23 41.3 -5.28 41.3 -5.28"/><polygon class="cls-4" points="21.68 0.57 21.64 0.62 21.68 0.42 21.68 0.57 21.68 0.57"/><polygon class="cls-4" points="27.2 -5.52 26.1 -5.03 26.1 -5.08 26.1 -5.18 26.1 -5.23 26.6 -5.28 26.83 -5.93 27 -6.52 26.96 -6.52 26.86 -5.93 26.48 -5.61 26.1 -5.23 26.1 -5.18 26.1 -5.13 26.1 -5.03 26.1 -4.98 26.1 -4.88 26.1 -4.88 26.1 -4.88 26.1 -4.88 26.1 -4.88 26.1 -4.83 26.1 -4.78 26.1 -4.73 26.48 -4.68 26.59 -4.13 26.58 -3.58 26.37 -3.08 26.15 -2.63 25.81 -2.18 25.43 -1.78 24.98 -1.43 24.54 -1.13 24.25 -0.98 23.95 -0.88 23.65 -0.7 23.36 -0.52 23.02 -0.52 22.72 -0.52 22.38 -0.52 22.08 -0.52 21.79 -0.52 21.54 -0.52 21.24 -0.52 21 -0.52 20.9 -0.52 20.8 -0.38 20.7 -0.23 20.65 -0.15 20.6 0.14 20.55 0.48 21.1 0.48 21.1 0.48 21.1 0.17 21.1 0.17 21.1 -0.18 21.1 -0.53 20.83 -0.88 20.76 -1.18 20.83 -1.58 20.89 -2.03 21.02 -2.48 21.11 -2.93 21.3 -3.33 21.49 -3.73 21.79 -4.03 22.18 -4.23 22.38 -4.18 22.57 -4.23 22.86 -4.38 23.1 -4.53 23.1 -4.68 22.91 -4.88 22.74 -5.03 22.56 -5.73 22.23 -6.52 21.93 -6.52 21.64 -5.83 21.34 -5.38 20.9 -5.88 20.35 -6.41 19.76 -6.87 19.07 -7.3 18.39 -7.59 17.6 -7.79 16.81 -7.84 16.02 -7.74 15.67 -7.63 15.38 -7.54 15.08 -7.39 14.84 -7.23 14.59 -7.08 14.34 -6.88 14.1 -6.68 13.9 -6.43 13.95 -6.58 14.05 -6.73 14.1 -6.88 14.14 -7.03 14.54 -7.74 14.98 -8.33 15.48 -8.88 16.07 -9.39 16.66 -9.79 17.35 -10.14 18.09 -10.39 18.88 -11.03 19.56 -11.52 20.21 -11.52 20.9 -10.98 21.49 -10.61 22.13 -10.25 22.72 -9.94 23.26 -9.56 23.8 -9.15 23.85 -8.99 23.95 -8.89 24.05 -8.79 24.2 -8.73 24.39 -8.79 24.54 -8.88 24.64 -8.99 24.69 -9.19 24.84 -9.79 25.09 -10.34 25.38 -10.84 25.77 -11.29 26.22 -11.69 26.71 -12.09 27.2 -12.39 27.7 -12.74 27.55 -12.44 27.4 -12.14 27.35 -11.84 27.3 -11.54 27.4 -10.59 27.7 -9.64 28.09 -8.73 28.34 -7.79 28.39 -7.13 28.34 -6.53 28.19 -5.93 27.94 -5.38 27.84 -5.23 27.7 -5.36 27.5 -5.52 27.25 -5.52 27.2 -5.52"/><polygon class="cls-4" points="43.51 32.25 43.36 32.05 43.17 31.85 43.02 31.65 42.82 31.45 43.66 30.65 44.3 29.75 44.84 28.7 45.02 27.65 45.1 26.55 45.1 25.4 45.02 24.3 44.74 23.19 44.47 22.54 44.19 21.89 43.8 21.29 43.41 20.64 42.97 20.09 42.52 19.54 41.98 19.09 41.4 18.69 41.3 18.44 41.2 18.24 41.1 17.99 40.95 17.79 40.8 17.58 40.6 17.48 40.41 17.48 40.26 17.63 40.16 17.76 39.61 17.88 39.1 17.99 39.1 17.48 39.1 17.48 39.1 17.48 39.1 17.48 39.1 17.48 39.91 17.48 39.87 17.48 39.46 17.86 39.1 18.24 39.1 18.34 39.1 18.39 39.46 18.49 39.71 18.54 39.89 18.59 40.07 18.64 40.19 18.74 40.07 18.79 40.1 19.69 40.1 20.54 40.1 21.44 40.13 22.34 40.1 22.24 40.1 22.09 40.06 22 40.03 21.89 39.6 21.54 39.56 21.51 39.47 21.48 39.42 21.48 39.32 21.48 38.93 21.48 38.88 21.48 38.83 21.48 38.73 21.48 38.68 21.48 38.53 20.98 38.39 20.54 38.24 20.09 38.04 19.64 37.9 19.24 37.7 18.89 37.45 18.54 37.2 18.24 36.91 17.94 36.56 17.64 36.22 17.39 35.88 17.19 35.48 16.99 35.13 16.74 34.74 16.54 34.35 16.34 34 16.19 33.61 16.04 33.16 15.89 32.46 15.79 32.1 15.74 32.1 14.48 32.25 14.48 32.1 15.64 32.1 15.54 32.24 15.49 32.21 15.44 32.12 15.49 32.1 15.54 32.1 15.59 32.1 15.69 32.1 15.74 32.1 16.02 32.1 16.02 32.1 16.02 32.1 16.02 32.1 15.84 32.1 15.89 32.1 15.94 32.09 15.99 32.41 16.89 32.59 17.89 32.68 18.84 32.63 19.84 32.38 19.54 32.13 19.24 31.88 18.99 31.59 18.69 31.29 18.44 31 18.19 30.7 17.94 30.36 17.69 29.52 17.14 28.58 16.69 27.7 16.29 26.71 16.04 25.73 15.84 24.79 15.79 23.8 15.89 22.82 16.09 22.72 15.28 22.57 14.48 22.47 14.48 22.33 14.48 22.18 14.48 22.03 14.48 21.93 15.33 21.88 15.81 21.83 16.15 21.88 16.39 21.93 16.54 22.03 16.66 22.13 16.73 22.18 16.78 22.27 16.89 22.33 16.94 22.77 17.09 22.87 17.24 22.87 17.24 23.21 17.99 23.46 18.84 23.65 19.64 23.85 20.49 24 20.84 24.2 21.19 24.49 21.49 24.79 21.56 24.69 21.48 24.59 21.48 24.54 21.66 24.45 21.77 23.9 22.06 23.41 22.38 22.92 22.79 22.47 23.14 22.03 23.59 21.59 23.99 21.09 24.39 20.6 24.59 20.35 24.48 20.11 24.48 19.81 24.5 19.56 24.48 19.47 24.48 19.42 24.48 19.32 24.66 19.21 24.78 19.1 24.95 19.1 24.99 19.21 25.09 19.29 25.15 19.4 25.25 19.51 25.35 19.61 25.4 19.71 25.45 20.06 26 20.45 26.5 20.9 26.95 21.39 27.3 21.88 27.6 22.42 27.85 23.01 28.05 23.61 28.25 24.2 28.4 24.79 28.5 25.43 28.6 26.07 28.65 26.66 28.7 27.3 28.75 27.89 28.85 28.48 28.9 28.93 29 29.32 29.15 29.62 29.4 29.81 29.7 29.77 30.4 29.47 31.1 29.07 31.7 28.58 32.25 28.14 32.65 27.7 33.1 27.2 33.5 26.71 33.95 26.37 34.45 26.07 34.95 25.51 35.56 25.1 36.16 25.1 36.48 25.1 36.48 25.1 36.48 25.1 36.26 25.1 36.31 25.1 36.31 25.1 36.31 25.69 36.36 26 36.41 26.23 35.97 26.46 35.48 26.56 35.48 27.05 36 27.55 36.48 28.09 36.48 28.63 36.59 29.12 36.57 29.67 36.57 30.21 36.02 30.7 35.48 30.95 35.48 31.24 35.48 31.54 35.48 31.84 36.04 32.08 36.4 32.28 36.68 32.48 36.89 32.62 37.18 32.87 37.74 33.06 38.35 33.21 38.96 33.46 39.55 33.66 40.11 33.95 40.66 34.3 41.16 34.69 41.61 35.09 41.96 35.58 42.21 36.02 42.89 36.51 43.48 37.01 43.48 37.5 42.89 37.9 42.41 38.29 41.88 38.25 41.67 38.1 41.46 38.1 41.26 38.2 41.11 38.54 41.26 38.83 41.41 39.15 41.51 39.46 41.56 39.76 41.61 40.06 41.66 40.41 41.61 40.7 41.56 41.1 41.41 41.44 41.21 41.79 41.01 42.13 40.81 42.43 40.56 42.77 40.41 43.17 40.26 43.56 40.21 43.76 40.16 43.86 40.06 44 39.96 44.1 39.76 44.1 39.61 44 39.51 44.03 39.46 44.1 39.36 44.1 39.31 44.1 39.26 44.1 39.21 44.1 39.16 43.93 38.96 43.77 38.86 43.64 38.76 43.43 38.71 42.93 38.61 42.48 38.41 42.09 38.11 41.79 37.76 41.49 37.31 41.2 36.91 40.9 36.46 40.6 35.79 40.56 35.48 40.56 35.48 40.51 35.48 40.46 35.48 40.8 35.48 41.1 35.77 41.44 35.94 41.74 36.09 42.03 36.28 42.28 36.49 42.52 36.7 42.77 36.95 42.82 37.06 42.87 37.16 42.99 37.26 43.1 37.36 43.1 37.41 43.1 37.46 43.1 37.51 43.16 37.56 43.31 37.04 43.46 36.48 43.61 36.48 43.76 36.48 43.99 36.48 44.1 36.48 44.1 37.16 43.83 37.01 44.1 35.86 44.1 34.61 43.93 33.4 43.51 32.25 43.51 32.25"/><polygon class="cls-4" points="10.79 22.54 10.65 26.55 10.01 29.9 9.07 32.6 7.74 34.76 6.21 36.46 4.54 37.71 2.71 38.71 0.89 39.41 -0.93 39.91 -2.65 40.36 -4.23 40.71 -5.56 41.16 -6.55 41.71 -7.24 42.46 -7.48 43.41 -7.19 44.77 -6.84 45.62 -6.45 46.27 -6.05 46.95 -5.61 47.48 -5.12 47.48 -4.58 47.05 -3.98 46.63 -3.35 46.25 -2.65 45.81 -1.87 45.38 -0.98 44.98 0.01 44.62 1.04 44.32 2.22 44.11 3.09 44.06 4.1 44.11 4.1 44.87 4.47 45.62 4.58 46.32 4.53 46.97 4.34 47.57 4.07 48.12 3.64 48.62 3.1 49.07 4.53 49.82 5.67 50.62 6.46 51.52 6.95 52.42 7.2 53.37 7.15 54.37 6.86 55.32 6.36 56.28 5.48 55.17 4.49 54.42 3.4 53.82 2.27 53.47 1.09 53.22 -0.09 53.02 -1.27 52.92 -2.41 52.77 -3.54 52.52 -4.63 52.17 -5.56 51.67 -6.45 50.92 -7.19 49.92 -7.78 48.62 -8.17 46.87 -8.42 44.77 -8.32 42.91 -7.83 41.51 -6.99 40.51 -5.86 39.71 -4.53 39.16 -3 38.71 -1.32 38.31 0.4 37.86 2.12 37.26 3.8 36.51 5.38 35.41 6.86 33.95 8.09 32.1 9.07 29.7 9.71 26.65 10.01 22.94 9.96 21.39 9.76 19.89 9.37 18.44 8.82 16.99 8.18 15.64 7.35 14.34 6.41 13.09 5.38 11.88 4.24 10.73 3.01 9.68 1.68 8.73 0.3 7.83 -1.18 7.03 -2.7 6.28 -4.28 5.68 -5.91 5.13 -7.58 4.73 -9.26 4.43 -10.93 4.23 -12.61 4.13 -14.28 4.18 -15.96 4.38 -17.63 4.68 -19.21 5.13 -20.79 5.68 -22.32 6.43 -23.79 7.33 -25.17 8.33 -26.5 9.53 -27.68 10.88 -28.82 12.44 -29.85 14.13 -31.43 17.39 -32.61 20.54 -33.5 23.59 -33.99 26.55 -34.19 29.4 -34.04 32.2 -33.65 34.91 -33.01 37.51 -32.12 40.01 -30.99 42.46 -29.7 44.82 -28.18 47.12 -26.55 49.32 -24.73 51.42 -22.81 53.47 -20.79 55.43 -18.23 57.68 -15.61 59.88 -12.95 61.93 -10.24 63.88 -7.58 65.74 -4.97 67.48 -2.46 69.19 -0.04 70.74 2.22 72.24 4.29 73.64 6.16 74.94 7.74 76.19 9.02 77.3 9.96 78.4 10.6 79.4 10.79 80.3 9.91 79.25 8.97 78.3 8.04 77.34 7.1 76.49 6.16 75.69 5.23 74.94 4.24 74.24 3.26 73.59 2.27 72.94 1.29 72.34 0.25 71.74 -0.78 71.14 -1.77 70.59 -2.8 70.04 -3.84 69.54 -4.92 68.99 -5.96 68.44 -6.99 67.89 -8.07 67.28 -9.11 66.74 -10.19 66.09 -11.28 65.43 -12.31 64.78 -13.4 64.03 -14.48 63.28 -15.56 62.48 -16.65 61.58 -17.68 60.68 -18.77 59.68 -19.85 58.63 -20.89 57.48 -21.97 56.28 -24.04 53.82 -26.01 51.42 -27.88 49.07 -29.61 46.72 -31.13 44.41 -32.46 42.06 -33.6 39.71 -34.53 37.26 -35.17 34.76 -35.52 32.15 -35.62 29.4 -35.37 26.55 -34.73 23.55 -33.8 20.34 -32.46 16.89 -30.69 13.29 -29.66 11.48 -28.47 9.88 -27.24 8.43 -25.91 7.13 -24.48 6.03 -22.95 5.03 -21.43 4.23 -19.8 3.53 -18.18 2.98 -16.45 2.58 -14.78 2.45 -13 2.48 -11.28 2.48 -9.55 2.45 -7.83 2.69 -6.1 3.01 -4.43 3.49 -2.8 4.09 -1.23 4.78 0.3 5.63 1.78 6.53 3.16 7.58 4.44 8.68 5.67 9.88 6.76 11.18 7.74 12.58 8.63 14.04 9.37 15.59 9.96 17.24 10.4 18.94 10.7 20.69 10.79 22.54 10.79 22.54"/><polygon class="cls-4" points="-17.39 -0.83 -17.19 -0.58 -16.99 -0.33 -16.75 -0.13 -16.45 0.02 -16.15 0.12 -15.86 0.17 -15.56 0.12 -15.27 -0.03 -15.12 -0.13 -15.01 -0.23 -14.9 -0.38 -14.9 -0.53 -15.06 -0.68 -15.24 -0.78 -15.4 -0.83 -15.56 -0.68 -15.66 -0.52 -15.81 -0.52 -15.96 -0.52 -16.06 -0.68 -16.65 -1.23 -16.94 -1.95 -17.04 -2.77 -16.94 -3.52 -16.6 -4.38 -16.11 -5.08 -15.47 -5.68 -14.73 -6.13 -13.89 -6.48 -13 -6.68 -12.12 -6.83 -11.23 -6.88 -10.54 -6.53 -9.85 -6.08 -9.26 -5.58 -8.72 -5.03 -8.22 -4.38 -7.78 -3.73 -7.38 -3.03 -7.04 -2.33 -6.7 -1.38 -6.45 -0.38 -6.3 0.62 -6.25 1.62 -6.35 2.63 -6.6 3.58 -6.94 4.58 -7.44 5.48 -7.78 6.03 -8.22 6.48 -8.67 6.93 -9.21 7.28 -9.75 7.58 -10.34 7.58 -10.93 7.48 -11.57 7.48 -12.9 7.83 -12.9 7.78 -12.9 7.73 -12.9 7.63 -12.9 7.53 -11.82 7.48 -11.87 7.48 -11.97 7.48 -12.41 7.53 -12.9 7.63 -12.9 7.68 -12.9 7.78 -12.41 8.08 -12.02 8.33 -11.67 8.48 -11.33 8.53 -10.66 8.48 -10.01 8.33 -9.36 8.13 -8.77 7.83 -8.22 7.48 -7.73 7.03 -7.29 6.58 -6.89 6.03 -6.4 5.23 -6.05 4.38 -5.76 3.53 -5.56 2.67 -5.41 1.77 -5.37 0.92 -5.41 0.02 -5.56 -0.83 -5.46 -1.28 -5.27 -1.73 -5.12 -2.18 -4.87 -2.63 -4.63 -3.03 -4.38 -3.38 -4.04 -3.68 -3.64 -3.98 -4.27 -4.08 -4.9 -4.18 -4.9 -4.33 -3.54 -5.52 -3.54 -5.52 -3.49 -5.52 -3.54 -5.52 -3.54 -5.52 -3.49 -5.52 -3.4 -5.52 -3.35 -5.52 -3.29 -5.52 -3.25 -4.38 -3.15 -3.55 -2.95 -2.87 -2.65 -2.25 -2.36 -1.71 -1.97 -1.2 -1.57 -0.74 -1.13 -0.33 -0.73 -0.08 -0.34 0.12 0.1 0.22 0.55 0.32 0.99 0.37 1.48 0.42 1.88 0.52 2.32 0.67 2.47 0.72 2.62 1.07 2.76 1.27 2.91 1.37 3.16 1.42 3.36 0.95 3.4 0.48 3.56 0.48 3.56 0.48 3.5 0.48 3.5 0.48 3.5 0.48 3.5 0.48 3.5 0.48 3.6 0.48 3.65 0.48 3.75 0.83 3.8 0.97 4.09 0.42 4.24 -0.23 4.29 -0.95 4.24 -1.64 4.09 -2.34 3.85 -3.03 3.55 -3.73 3.21 -4.38 3.55 -4.98 4 -5.53 4.49 -5.98 5.08 -6.38 5.67 -6.68 6.31 -6.88 7 -6.98 7.69 -6.93 8.18 -6.83 8.63 -6.63 9.02 -6.38 9.42 -6.03 9.76 -5.68 10.01 -5.28 10.25 -4.83 10.4 -4.33 10.3 -3.63 10.15 -2.93 9.86 -2.23 9.52 -1.68 9.07 -1.13 8.53 -0.73 7.89 -0.58 7.2 -0.52 7.1 -0.52 7 -0.52 7.05 -0.28 7.1 -0.08 7.1 0.02 7.05 0.3 6.99 0.48 7.1 0.48 7.79 0.48 8.48 0.2 9.12 -0.17 9.71 -0.64 10.21 -1.16 10.65 -1.82 10.94 -2.48 11.19 -3.13 11.39 -4.38 11.34 -5.63 11.09 -6.78 10.65 -7.88 9.96 -8.88 9.17 -9.79 8.18 -10.54 7.1 -11.09 6.21 -11.39 5.28 -11.54 4.39 -11.59 3.46 -11.49 2.57 -11.29 1.68 -10.99 0.89 -10.54 0.1 -9.99 -0.14 -10.64 -0.54 -11.19 -1.03 -11.69 -1.57 -12.14 -2.16 -12.54 -2.8 -12.89 -3.44 -13.19 -4.04 -13.96 -4.08 -14.52 -4.18 -14.52 -4.23 -13.96 -4.33 -13.65 -4.58 -13.67 -4.82 -13.75 -5.07 -14.14 -5.32 -14.52 -5.51 -14.52 -5.71 -14.16 -5.85 -13.85 -5.9 -13.49 -5.9 -13.29 -5.85 -13.14 -5.71 -12.99 -5.56 -12.89 -5.12 -12.59 -4.72 -12.24 -4.43 -11.79 -4.23 -11.29 -4.43 -10.59 -4.67 -9.89 -4.87 -9.19 -5.43 -8.44 -5.9 -7.74 -5.9 -6.98 -5.39 -6.28 -4.96 -5.53 -4.72 -5.23 -4.48 -4.98 -4.21 -5.25 -3.94 -5.52 -3.94 -5.52 -3.94 -5.52 -3.98 -5.52 -3.98 -5.52 -4.38 -4.85 -4.72 -4.42 -4.97 -4 -5.22 -3.64 -5.46 -3.21 -5.61 -2.85 -5.76 -2.44 -5.86 -1.98 -6.2 -2.88 -6.6 -3.78 -7.14 -4.63 -7.73 -5.43 -8.37 -6.13 -9.11 -6.78 -9.9 -7.33 -10.79 -7.79 -11.67 -7.88 -12.61 -7.83 -13.5 -7.68 -14.38 -7.43 -15.22 -7.08 -15.96 -6.58 -16.65 -5.98 -17.29 -5.28 -17.83 -4.23 -18.03 -3.08 -17.88 -1.93 -17.39 -0.83 -17.39 -0.83"/><polygon class="cls-4" points="2.32 0.42 2.42 0.62 2.37 0.57 2.32 0.42 2.32 0.42"/><polygon class="cls-4" points="-3.94 -5.38 -4.13 -5.93 -4.28 -6.53 -4.38 -7.13 -4.33 -7.79 -4.08 -8.73 -3.69 -9.64 -3.35 -10.59 -3.25 -11.54 -3.29 -11.84 -3.4 -12.14 -3.54 -12.44 -3.69 -12.74 -3.2 -12.39 -2.65 -12.09 -2.16 -11.69 -1.72 -11.29 -1.32 -10.84 -1.03 -10.34 -0.78 -9.79 -0.64 -9.19 -0.58 -8.99 -0.48 -8.88 -0.39 -8.79 -0.19 -8.73 -0.04 -8.79 0.1 -8.88 0.15 -8.99 0.2 -9.14 0.74 -9.54 1.34 -9.89 1.93 -10.14 2.57 -10.39 3.16 -10.98 3.85 -11.52 4.49 -11.52 5.18 -11.03 5.92 -10.61 6.66 -10.25 7.35 -9.84 7.99 -9.41 8.53 -8.9 9.02 -8.34 9.47 -7.74 9.86 -7.04 9.91 -6.88 10.01 -6.73 10.06 -6.58 10.11 -6.43 9.91 -6.68 9.71 -6.88 9.47 -7.08 9.22 -7.23 8.92 -7.39 8.63 -7.54 8.33 -7.63 8.04 -7.74 7.2 -7.83 6.41 -7.79 5.67 -7.58 4.93 -7.28 4.29 -6.83 3.7 -6.33 3.16 -5.73 2.71 -5.08 2.42 -5.83 2.12 -6.52 1.83 -6.52 1.53 -5.73 1.39 -5.33 1.24 -5.03 1.19 -4.76 1.24 -4.57 1.34 -4.4 1.48 -4.24 1.63 -4.19 1.83 -4.23 2.22 -4.03 2.52 -3.73 2.76 -3.33 2.91 -2.93 3.06 -2.48 3.16 -2.03 3.26 -1.58 3.4 -1.18 3.28 -0.88 3.1 -0.53 3.1 -0.18 3.1 0.17 3.1 0.17 3.1 0.48 3.5 0.48 3.45 0.48 3.43 0.15 3.39 -0.04 3.3 -0.13 3.25 -0.35 3.16 -0.52 3.01 -0.52 2.76 -0.58 2.52 -0.68 2.22 -0.6 1.98 -0.52 1.63 -0.52 1.34 -0.52 0.99 -0.52 0.65 -0.52 0.35 -0.7 0.06 -0.81 -0.24 -0.95 -0.54 -1.11 -0.98 -1.42 -1.42 -1.77 -1.77 -2.18 -2.11 -2.63 -2.41 -3.08 -2.6 -3.58 -3.28 -4.13 -3.9 -4.68 -3.9 -4.73 -3.9 -4.78 -3.9 -4.83 -3.9 -4.88 -3.9 -4.88 -3.9 -4.88 -3.9 -4.88 -3.9 -4.88 -3.9 -4.98 -3.9 -5.03 -3.9 -5.13 -3.9 -5.18 -3.9 -5.23 -3.35 -5.33 -3.15 -5.93 -2.9 -6.52 -3 -6.52 -3.48 -5.93 -3.9 -5.28 -3.9 -5.23 -3.9 -5.18 -3.9 -5.08 -3.9 -5.03 -3.9 -5.52 -3.44 -5.52 -3.64 -5.36 -3.84 -5.37 -3.94 -5.38 -3.94 -5.38"/><polygon class="cls-4" points="-19.78 37.01 -19.9 37.16 -19.9 37.31 -19.9 37.46 -19.78 36.99 -19.61 36.48 -19.46 36.48 -19.31 37.04 -19.16 37.25 -19.53 37.35 -19.9 37.46 -19.9 37.41 -19.43 37.36 -19.13 37.26 -19.49 37.16 -19.9 37.06 -19.9 36.96 -19.09 36.71 -18.56 36.51 -18.17 36.31 -17.8 36.16 -17.47 36.06 -17.11 35.77 -16.8 35.48 -16.45 35.48 -16.5 35.48 -16.5 35.48 -16.9 35.48 -16.9 36.06 -17.02 36.46 -17.23 36.91 -17.48 37.31 -17.75 37.76 -18.09 38.11 -18.48 38.41 -18.92 38.61 -19.41 38.71 -19.55 38.76 -19.75 38.86 -19.9 38.96 -19.9 39.16 -19.9 39.21 -19.9 39.26 -19.9 39.31 -19.8 39.36 -19.87 39.46 -19.91 39.51 -19.9 39.61 -19.9 39.76 -19.9 39.96 -19.83 40.06 -19.69 40.16 -19.5 40.21 -19.11 40.26 -18.72 40.41 -18.42 40.56 -18.08 40.81 -17.73 41.01 -17.44 41.21 -17.04 41.41 -16.65 41.56 -16.36 41.61 -16.06 41.66 -15.76 41.61 -15.42 41.56 -15.17 41.51 -14.88 41.41 -14.63 41.26 -14.09 41.11 -13.9 41.26 -13.9 41.46 -14.09 41.61 -14.14 41.76 -13.82 42.16 -13.41 42.89 -13 43.48 -12.51 43.48 -12.02 42.89 -11.52 42.45 -11.08 42.08 -10.69 41.67 -10.24 41.19 -9.9 40.68 -9.65 40.12 -9.4 39.57 -9.21 38.96 -9.01 38.36 -8.81 37.76 -8.62 37.21 -8.47 36.96 -8.27 36.81 -8.02 36.66 -7.78 36.04 -7.53 35.48 -7.24 35.48 -6.94 35.48 -6.7 35.48 -6.2 36.04 -5.66 36.35 -5.12 36.53 -4.58 36.53 -4.04 36.48 -3.49 36.48 -3 36 -2.51 35.48 -2.41 35.48 -2.31 35.97 -1.63 36.14 -0.9 36.36 -0.9 36.31 -0.9 36.31 -0.9 36.31 -0.9 36.26 -0.9 36.21 -0.9 36.21 -0.9 36.21 -0.9 36.16 -1.41 35.56 -1.76 34.95 -2.21 34.45 -2.63 33.95 -3.11 33.5 -3.62 33.1 -4.12 32.65 -4.52 32.25 -5.02 31.7 -5.46 31.1 -5.71 30.4 -5.76 29.7 -5.61 29.4 -5.32 29.15 -4.92 29 -4.48 28.9 -3.89 28.85 -3.25 28.75 -2.65 28.7 -2.02 28.65 -1.37 28.6 -0.78 28.5 -0.14 28.4 0.45 28.25 1.04 28.05 1.58 27.85 2.12 27.6 2.62 27.3 3.11 26.95 3.55 26.5 3.95 26 4.29 25.45 4.39 25.4 4.49 25.35 4.59 25.25 4.69 25.15 4.39 25.09 4.1 24.99 4.1 24.95 4.1 24.84 4.39 24.66 4.64 24.48 4.59 24.48 4.49 24.48 4.24 24.5 3.95 24.48 3.7 24.48 3.46 24.59 2.96 24.29 2.47 23.94 1.98 23.57 1.53 23.13 1.09 22.79 0.6 22.39 0.1 22.09 -0.44 21.84 -0.48 21.66 -0.58 21.48 -0.64 21.48 -0.73 21.56 -0.44 21.43 -0.14 21.16 0.06 20.83 0.2 20.48 0.4 19.64 0.55 18.84 0.79 17.99 1.14 17.24 1.14 17.24 1.29 17.09 1.73 16.94 1.78 16.89 1.83 16.79 1.93 16.74 1.98 16.69 2.12 16.59 2.17 16.49 2.22 16.34 2.17 16.19 2.07 15.33 1.98 14.48 1.83 14.48 1.68 14.48 1.53 14.48 1.44 14.48 1.29 15.28 1.19 15.71 0.25 15.7 -0.73 15.69 -1.72 15.79 -2.65 16.01 -3.64 16.27 -4.58 16.68 -5.46 17.14 -6.35 17.69 -6.65 17.94 -6.99 18.19 -7.29 18.44 -7.53 18.69 -7.83 18.99 -8.07 19.24 -8.32 19.54 -8.57 19.84 -8.62 18.84 -8.52 17.89 -8.32 16.89 -7.99 15.99 -7.9 15.94 -7.9 15.89 -7.9 15.84 -7.9 15.79 -7.9 15.79 -7.9 15.79 -7.9 15.79 -7.9 15.74 -7.99 15.69 -8.06 15.59 -8.11 15.54 -8.17 15.49 -8.32 15.44 -8.47 15.49 -8.57 15.54 -8.62 15.64 -9.26 15.69 -9.26 15.69 -9.9 15.74 -9.9 15.79 -9.7 15.89 -9.85 16.04 -10.09 16.19 -10.42 16.34 -10.77 16.54 -11.1 16.74 -11.48 16.99 -11.87 17.19 -12.22 17.39 -12.56 17.64 -12.86 17.94 -13.15 18.24 -13.4 18.54 -13.64 18.89 -13.84 19.24 -14.04 19.64 -14.19 20.09 -14.33 20.54 -14.48 20.98 -14.63 21.48 -14.68 21.48 -14.78 21.48 -14.83 21.48 -14.92 21.48 -15.32 21.48 -15.37 21.48 -15.47 21.48 -15.52 21.48 -15.56 21.48 -16.01 21.86 -16.06 21.98 -16.15 22.09 -16.2 22.24 -16.3 22.34 -16.45 21.45 -16.55 20.54 -16.5 19.69 -16.25 18.79 -16.15 18.74 -16.01 18.64 -15.91 18.59 -15.81 18.54 -15.36 18.49 -14.9 18.39 -14.9 18.34 -14.9 18.24 -15.36 17.86 -15.81 17.48 -15.91 17.48 -16.9 17.48 -16.9 17.48 -16.9 17.48 -16.9 17.48 -16.9 17.48 -16.9 17.99 -16.5 17.89 -16.33 17.79 -16.32 17.63 -16.4 17.48 -16.6 17.48 -16.75 17.58 -16.9 17.76 -17.04 17.98 -17.14 18.23 -17.24 18.44 -17.34 18.69 -17.93 19.09 -18.47 19.54 -18.96 20.09 -19.41 20.64 -19.8 21.29 -20.15 21.89 -20.44 22.54 -20.74 23.19 -21.13 24.3 -21.28 25.4 -21.33 26.55 -21.13 27.65 -20.79 28.7 -20.29 29.75 -19.65 30.65 -18.82 31.45 -19.01 31.65 -19.16 31.85 -19.31 32.05 -19.46 32.25 -19.95 33.4 -20.24 34.61 -20.21 35.86 -19.78 37.01 -19.78 37.01"/><polygon class="cls-4" points="113.76 22.54 113.61 26.55 112.97 29.9 112.03 32.6 110.7 34.76 109.17 36.46 107.5 37.71 105.68 38.71 103.85 39.41 102.03 39.91 100.3 40.36 98.73 40.71 97.4 41.16 96.41 41.71 95.72 42.46 95.48 43.41 95.77 44.77 96.12 45.62 96.51 46.27 96.9 46.95 97.35 47.48 97.84 47.48 98.38 47.05 98.97 46.63 99.61 46.25 100.3 45.81 101.09 45.38 101.98 44.98 102.97 44.62 104 44.32 105.18 44.11 106.57 44.06 108.1 44.11 108.1 44.87 107.95 45.62 107.8 46.32 107.62 46.97 107.36 47.57 107.06 48.12 106.61 48.62 106.07 49.07 107.5 49.82 108.63 50.62 109.42 51.52 109.91 52.42 110.16 53.37 110.11 54.37 109.81 55.32 109.32 56.28 108.44 55.17 107.45 54.42 106.37 53.82 105.23 53.47 104.05 53.22 102.87 53.02 101.69 52.92 100.55 52.77 99.42 52.52 98.33 52.17 97.4 51.67 96.51 50.92 95.77 49.92 95.18 48.62 94.78 46.87 94.54 44.77 94.64 42.91 95.13 41.51 95.97 40.51 97.1 39.71 98.43 39.16 99.96 38.71 101.64 38.31 103.36 37.86 105.08 37.26 106.76 36.51 108.34 35.41 109.81 33.95 111.05 32.1 112.03 29.7 112.67 26.65 112.97 22.94 112.92 21.39 112.72 19.89 112.33 18.44 111.78 16.99 111.14 15.64 110.31 14.34 109.37 13.09 108.34 11.88 107.2 10.73 105.97 9.68 104.64 8.73 103.26 7.83 101.78 7.03 100.26 6.28 98.68 5.68 97.05 5.13 95.38 4.73 93.7 4.43 92.03 4.23 90.35 4.13 88.68 4.18 87 4.38 85.33 4.68 83.75 5.13 82.17 5.68 80.65 6.43 79.17 7.33 77.79 8.33 76.46 9.53 75.27 10.88 74.14 12.44 73.11 14.13 71.53 17.39 70.35 20.54 69.46 23.59 68.97 26.55 68.77 29.4 68.92 32.2 69.31 34.91 69.95 37.51 70.84 40.01 71.97 42.46 73.25 44.82 74.78 47.12 76.41 49.32 78.23 51.42 80.15 53.47 82.17 55.43 84.73 57.68 87.35 59.88 90.01 61.93 92.72 63.88 95.38 65.74 97.99 67.48 100.5 69.19 102.92 70.74 105.18 72.24 107.25 73.64 109.13 74.94 110.7 76.19 111.98 77.3 112.92 78.4 113.56 79.4 113.76 80.3 112.87 79.25 111.93 78.3 111 77.34 110.06 76.49 109.13 75.69 108.19 74.94 107.2 74.24 106.22 73.59 105.23 72.94 104.25 72.34 103.21 71.74 102.18 71.14 101.19 70.59 100.16 70.04 99.12 69.54 98.04 68.99 97 68.44 95.97 67.89 94.89 67.28 93.85 66.74 92.77 66.09 91.68 65.43 90.65 64.78 89.56 64.03 88.48 63.28 87.4 62.48 86.31 61.58 85.28 60.68 84.19 59.68 83.11 58.63 82.08 57.48 80.99 56.28 78.92 53.82 76.95 51.42 75.08 49.07 73.35 46.72 71.83 44.41 70.5 42.06 69.36 39.71 68.43 37.26 67.78 34.76 67.44 32.15 67.34 29.4 67.59 26.55 68.23 23.55 69.17 20.34 70.5 16.89 72.27 13.29 73.31 11.48 74.49 9.88 75.72 8.43 77.05 7.13 78.48 6.03 80 5.03 81.53 4.23 83.16 3.53 84.78 2.98 86.51 2.58 88.18 2.45 89.96 2.48 91.68 2.48 93.41 2.45 95.13 2.69 96.86 3.01 98.53 3.49 100.16 4.09 101.73 4.78 103.26 5.63 104.74 6.53 106.12 7.58 107.4 8.68 108.63 9.88 109.72 11.18 110.7 12.58 111.59 14.04 112.33 15.59 112.92 17.24 113.36 18.94 113.66 20.69 113.76 22.54 113.76 22.54"/><polygon class="cls-4" points="70.25 20.79 70.69 20.19 71.19 19.54 71.73 18.94 72.32 18.39 72.86 17.89 73.45 17.44 74.09 17.09 74.68 16.68 75.27 16.48 75.87 16.48 76.41 16.73 76.95 17.09 77.44 17.61 77.89 18.38 78.28 19.29 78.63 20.49 79.31 19.69 79.76 18.84 80 17.99 80.06 17.14 79.91 16.34 79.66 15.59 79.22 14.89 78.67 14.34 77.98 13.94 77.25 13.73 76.41 13.69 75.52 13.84 74.53 14.29 73.6 14.94 72.61 15.94 71.63 17.24 70.25 20.79 70.25 20.79"/><polygon class="cls-4" points="69.95 14.79 69.61 11.68 69.46 6.48 69.51 0.72 69.81 -4.03 69.85 -4.33 69.95 -4.58 70.15 -4.78 70.4 -4.88 70.69 -4.83 71.19 -4.58 71.78 -4.13 72.57 -3.38 73.01 -2.93 73.5 -2.38 73.99 -1.83 74.44 -1.18 74.88 -0.43 75.16 0.42 75.1 1.32 75.1 2.33 75.1 3.48 75.26 4.68 75.12 6.03 74.66 7.53 73.91 9.13 72.89 10.88 71.57 12.74 69.95 14.79 69.95 14.79"/><polygon class="cls-4" points="68.28 23.45 68.13 22.24 68.23 20.79 68.47 19.09 68.97 17.14 69.66 15.09 70.64 12.93 71.83 10.63 73.31 8.33 74.24 6.48 74.64 4.53 74.59 2.53 74.19 0.62 73.5 -1.08 72.61 -2.53 71.58 -3.58 70.44 -4.18 70.55 -2.78 70.64 -1.18 70.59 0.42 70.25 1.82 69.95 4.08 69.9 7.43 70.05 10.73 70.25 12.79 69.66 14.19 68.92 11.53 68.67 8.58 68.72 5.38 68.92 2.22 69.17 -0.73 69.22 -3.23 68.97 -5.18 68.28 -6.33 68.82 -6.18 69.51 -5.93 70.3 -5.58 71.14 -5.08 72.02 -4.53 72.91 -3.83 73.7 -3.03 74.49 -2.13 75.18 -1.13 75.72 -0.08 76.11 1.12 76.31 2.38 76.26 3.73 75.97 5.18 75.42 6.73 74.53 8.33 72.66 11.33 71.24 13.84 70.25 15.89 69.56 17.59 69.17 18.94 69.02 20.04 69.07 20.94 69.22 21.74 68.28 23.45 68.28 23.45"/></g></g></g><g id="type"><path class="cls-5" d="M0,16V14.54H2.22V1.69H0V.24H6.12A13.56,13.56,0,0,1,8.78.42,6.2,6.2,0,0,1,13,3.23,10,10,0,0,1,14.19,8a9.34,9.34,0,0,1-1.43,5.3,6.31,6.31,0,0,1-4.64,2.6A23.5,23.5,0,0,1,5.63,16ZM4.14,1.69V14.54H5.81c1.83,0,3.48-.18,4.82-1.56a6.83,6.83,0,0,0,1.58-4.62c0-2.82-1.08-5.87-4.16-6.49a9.52,9.52,0,0,0-1.76-.18Z"/><path class="cls-5" d="M16.92,16V14.54h2.24V1.69H16.92V.24h6.6A7.36,7.36,0,0,1,27.41.9,4.06,4.06,0,0,1,29,4.27c0,2.18-1,4-3.32,4.16,1.74.4,2,1,2.4,2.6l1,3.52h1.69V16H27.55l-1.32-4.64a2.92,2.92,0,0,0-1.32-2,3.92,3.92,0,0,0-1.67-.24H21.08v5.48h2.13V16Zm4.16-14.3v5.9h2.09A4.86,4.86,0,0,0,26.07,7a3.07,3.07,0,0,0,1-2.44,3,3,0,0,0-.92-2.35,3.83,3.83,0,0,0-2.38-.51Z"/><path class="cls-5" d="M32.85,16V14.54h2.25V1.69H32.85V.24H45.43V5H43.72V1.69H37V7.26h3.26V4.86h1.58v6.21H40.26V8.71H37v5.83h6.71V11.09h1.72V16Z"/><path class="cls-5" d="M57.22,5.39c-.07-2.33-.84-4-3.39-4A2.61,2.61,0,0,0,51,4a2.45,2.45,0,0,0,.79,1.78,7.89,7.89,0,0,0,1.74.81l2,.77a6.31,6.31,0,0,1,2.71,1.5,4.06,4.06,0,0,1,1,2.84A4.06,4.06,0,0,1,58.72,14a4.55,4.55,0,0,1-4.27,2.27A3.73,3.73,0,0,1,50.69,14v2H49V10.67h1.67c.07,2.27,1.12,4.09,3.59,4.09a2.67,2.67,0,0,0,3-2.82c0-1.63-.92-2.11-2.27-2.66l-2.53-1c-2-.79-3.48-1.58-3.48-4a3.76,3.76,0,0,1,.75-2.55A4.52,4.52,0,0,1,53.68,0a3.77,3.77,0,0,1,3.54,1.74V.24h1.69V5.39Z"/><path class="cls-5" d="M70.56,5.39c-.07-2.33-.84-4-3.39-4A2.61,2.61,0,0,0,64.35,4a2.45,2.45,0,0,0,.79,1.78,7.89,7.89,0,0,0,1.74.81l2,.77a6.31,6.31,0,0,1,2.71,1.5,4.06,4.06,0,0,1,1,2.84A4.06,4.06,0,0,1,72.05,14a4.55,4.55,0,0,1-4.27,2.27A3.73,3.73,0,0,1,64,14v2H62.35V10.67H64c.07,2.27,1.12,4.09,3.59,4.09a2.67,2.67,0,0,0,3-2.82c0-1.63-.92-2.11-2.27-2.66l-2.53-1c-2-.79-3.48-1.58-3.48-4a3.75,3.75,0,0,1,.75-2.55A4.51,4.51,0,0,1,67,0a3.77,3.77,0,0,1,3.54,1.74V.24h1.69V5.39Z"/></g></svg>