<svg xmlns="http://www.w3.org/2000/svg" xmlns:xlink="http://www.w3.org/1999/xlink" viewBox="0 0 89.86 14.78"><defs><style>.cls-1{fill:none;}.cls-2{opacity:0.5;}.cls-3{clip-path:url(#clip-path);}.cls-4{clip-path:url(#clip-path-2);}.cls-5{fill:#fff;fill-rule:evenodd;}.cls-6{fill:#594d4d;}</style><clipPath id="clip-path"><rect class="cls-1" x="-1178.07" y="94.1" width="1160" height="2285"/></clipPath><clipPath id="clip-path-2"><rect class="cls-1" x="29.93" y="64.1" width="1160" height="355"/></clipPath></defs><title>アートボード 28</title><g id="graphic"><g class="cls-2"><g class="cls-4"><polygon class="cls-5" points="54.26 -8.9 54.9 -8.31 55.54 -7.84 56.18 -7.46 56.77 -7.01 57.32 -6.54 57.81 -6.08 58.21 -5.47 58.57 -4.87 58.93 -3.77 58.93 -2.62 58.77 -1.46 58.36 -0.36 57.57 1.29 56.58 2.89 55.55 4.49 54.51 5.99 53.57 7.6 52.79 9.24 52.24 11 52.05 12.85 52.14 14.4 52.54 15.85 53.18 17.2 54.02 18.45 55.05 19.51 56.28 20.41 57.61 21.11 59.09 21.25 59.98 21.1 60.91 21.1 61.75 21.3 62.64 21.26 63.48 21.03 64.27 20.72 65 20.24 65.69 19.7 66.58 18.75 67.27 17.65 68.22 16.4 68.93 15.1 68.93 13.8 68.17 12.55 67.35 11.45 66.3 10.45 65.85 10.2 65.43 9.99 64.92 9.97 64.41 10.1 63.97 10.1 63.53 10.07 63.18 10.24 62.98 10.64 62.93 10.75 62.93 10.9 62.77 11.1 62.95 11.1 63.18 11.1 63.33 11.1 63.48 11.15 63.63 11.1 63.77 11.02 63.92 11.01 64.07 11.1 64.22 11.1 64.66 11.07 65.1 11.16 65.5 11.33 65.84 11.56 66.14 11.91 66.38 12.3 66.58 12.7 66.68 13.15 66.78 14.05 66.73 15 66.58 15.9 66.34 16.8 65.94 17.6 65.4 18.3 64.76 18.95 63.97 19.4 63.57 19.61 63.18 19.76 62.79 19.91 62.39 20.06 61.95 20.21 61.55 20.31 61.16 20.36 60.72 20.41 59.49 20.31 58.3 20.01 57.17 19.51 56.14 18.81 55.25 17.95 54.51 16.95 53.87 15.8 53.48 14.6 53.23 12.5 53.52 10.55 54.16 8.7 55.05 6.89 56.09 5.19 57.17 3.44 58.21 1.69 58.99 -0.11 59.39 -1.36 59.58 -2.67 59.54 -3.97 59.14 -5.22 58.75 -5.92 58.3 -6.52 57.76 -7.07 57.17 -7.57 56.48 -7.97 55.79 -8.27 55.05 -8.63 54.26 -8.9 54.16 -8.9 54.11 -8.73 54.07 -8.58 54.02 -8.45 54.07 -8.38 54.11 -8.62 54.16 -8.9 54.26 -8.9 54.26 -8.9 54.26 -8.9"/><polygon class="cls-5" points="24.16 -17.83 24.31 -13.83 24.95 -10.47 25.93 -7.77 27.21 -5.62 28.74 -3.92 30.46 -2.67 32.24 -1.67 34.11 -0.96 35.94 -0.46 37.66 -0.01 39.19 0.34 40.52 0.79 41.55 1.34 42.24 2.09 42.44 3.04 42.19 4.39 41.8 5.24 41.4 5.89 41.01 6.57 40.56 7.1 40.07 7.1 39.53 6.67 38.99 6.26 38.35 5.87 37.61 5.43 36.82 5.01 35.94 4.6 34.95 4.25 33.91 3.94 32.73 3.74 31.41 3.69 29.93 3.74 29.93 4.49 30.02 5.24 30.15 5.94 30.3 6.59 30.56 7.2 30.86 7.74 31.3 8.24 31.84 8.7 30.42 9.45 29.33 10.25 28.54 11.15 28.05 12.05 27.81 13 27.85 14 28.1 14.95 28.59 15.9 29.48 14.8 30.46 14.05 31.55 13.45 32.68 13.1 33.87 12.85 35.05 12.65 36.23 12.55 37.41 12.4 38.55 12.15 39.58 11.8 40.56 11.3 41.4 10.55 42.14 9.55 42.73 8.24 43.13 6.49 43.38 4.39 43.28 2.54 42.78 1.14 41.95 0.14 40.86 -0.66 39.48 -1.21 37.95 -1.67 36.33 -2.07 34.6 -2.52 32.88 -3.12 31.2 -3.87 29.58 -4.97 28.15 -6.42 26.92 -8.27 25.93 -10.67 25.24 -13.73 24.95 -17.43 25 -18.98 25.24 -20.48 25.59 -21.93 26.13 -23.39 26.82 -24.74 27.61 -26.04 28.54 -27.29 29.58 -28.49 30.71 -29.64 31.94 -30.69 33.27 -31.64 34.7 -32.54 36.18 -33.34 37.71 -34.1 39.29 -34.7 40.91 -35.25 42.54 -35.65 44.21 -35.95 45.89 -36.15 47.61 -36.25 49.29 -36.2 50.96 -36 52.59 -35.7 54.21 -35.25 55.79 -34.7 57.32 -33.95 58.75 -33.05 60.18 -32.04 61.46 -30.84 62.69 -29.49 63.82 -27.94 64.86 -26.24 66.43 -23.03 67.62 -19.93 68.45 -16.88 68.95 -13.93 69.14 -11.07 69.05 -8.32 68.7 -5.67 68.06 -3.07 67.17 -0.56 66.09 1.89 64.81 4.24 63.33 6.49 61.7 8.7 59.98 10.8 58.06 12.85 56.09 14.8 53.52 17.1 50.91 19.25 48.2 21.36 45.49 23.36 42.78 25.21 40.12 27.01 37.56 28.66 35.14 30.27 32.83 31.77 30.76 33.17 28.89 34.52 27.26 35.77 25.98 36.92 25 37.97 24.36 38.97 24.16 39.93 25.05 38.87 25.98 37.92 26.92 36.97 27.85 36.12 28.79 35.32 29.73 34.57 30.71 33.87 31.7 33.22 32.68 32.57 33.67 31.97 34.7 31.37 35.74 30.77 36.72 30.22 37.76 29.66 38.79 29.16 39.88 28.61 40.91 28.06 41.95 27.51 43.03 26.91 44.06 26.36 45.15 25.71 46.23 25.06 47.27 24.41 48.35 23.66 49.43 22.91 50.52 22.11 51.6 21.21 52.64 20.31 53.72 19.31 54.81 18.25 55.84 17.1 56.92 15.9 58.99 13.45 60.96 11.05 62.84 8.7 64.56 6.34 66.09 4.04 67.47 1.69 68.6 -0.66 69.49 -3.12 70.13 -5.62 70.52 -8.22 70.57 -10.97 70.33 -13.83 69.73 -16.83 68.75 -20.03 67.42 -23.48 65.64 -27.09 64.61 -28.89 63.43 -30.49 62.2 -31.94 60.87 -33.24 59.44 -34.35 57.91 -35.35 56.38 -36.15 54.76 -36.85 53.13 -37.4 51.4 -37.8 49.73 -37.92 47.96 -37.9 46.23 -37.9 44.51 -37.92 42.78 -37.69 41.06 -37.37 39.38 -36.88 37.76 -36.29 36.18 -35.59 34.65 -34.74 33.18 -33.84 31.8 -32.79 30.51 -31.69 29.28 -30.49 28.2 -29.19 27.21 -27.79 26.33 -26.34 25.59 -24.79 25 -23.13 24.55 -21.43 24.26 -19.68 24.16 -17.83 24.16 -17.83"/><polygon class="cls-5" points="60.93 -1.67 60.93 -1.92 60.48 -2.26 60.18 -2.62 59.93 -2.92 59.59 -3.48 59.19 -3.9 58.75 -3.9 58.21 -3.48 57.66 -3.05 57.32 -2.58 57.12 -2.15 57.02 -1.73 57.07 -1.27 57.22 -0.87 57.42 -0.52 57.71 -0.16 58.01 0.1 58.4 0.1 58.75 -0.01 59.14 -0.23 59.49 -0.5 59.73 -0.86 60.15 -1.26 60.7 -1.66 60.93 -1.67"/><polygon class="cls-5" points="58.4 3.99 58.5 4.49 58.4 4.94 58.16 5.29 57.81 5.75 57.37 6.1 56.92 6.1 56.53 5.75 56.18 5.34 55.96 4.59 55.93 4.04 55.93 3.64 56.1 3.39 56.29 3.24 56.51 2.99 56.77 2.74 57.04 2.59 57.33 2.54 57.67 2.74 58.01 3.19 58.4 3.99 58.4 3.99"/><polygon class="cls-5" points="56.09 9.24 55.64 9.65 55.1 9.95 54.51 10.1 53.97 10.1 53.48 9.9 53.13 9.52 52.98 9.01 53.13 8.3 53.48 7.6 53.87 7.05 54.26 7.02 54.66 7.1 55.1 7.1 55.49 6.92 55.84 7.11 56.18 7.58 56.09 9.24 56.09 9.24"/><polygon class="cls-5" points="60.33 -3.07 60.08 -3.37 59.78 -3.62 59.44 -3.77 59.04 -3.82 58.65 -3.72 58.26 -3.57 57.91 -3.37 57.61 -3.07 57.37 -2.72 57.17 -2.37 57.02 -1.97 56.97 -1.56 57.02 -1.11 57.17 -0.71 57.42 -0.36 57.71 -0.01 58.06 0.19 58.45 0.34 58.84 0.27 59.29 0.1 59.34 0.1 59.39 0.1 59.44 0.1 59.49 0.1 59.54 0.1 59.73 0.05 60.18 -0.31 60.47 -0.79 60.62 -1.37 60.47 -1.97 60.37 -2.12 60.23 -2.51 60.08 -2.9 59.88 -2.9 59.73 -2.46 59.63 -2.14 59.58 -1.9 60.26 -1.71 60.93 -1.46 60.93 -1.26 60.26 -1.01 59.8 -0.81 59.2 -0.46 59.32 -1.31 58.89 -1.9 58.89 -1.9 58.89 -1.9 58.89 -1.9 58.94 -1.9 58.45 -1.25 58.06 -1.14 57.81 -1.3 57.71 -1.66 57.81 -2.01 57.96 -2.39 58.21 -2.68 58.55 -2.92 58.89 -3.07 59.29 -3.56 59.68 -3.9 60.03 -3.9 60.13 -3.9 60.18 -3.9 60.27 -3.33 60.33 -3.07 60.37 -2.97 60.42 -2.99 60.37 -3 60.33 -3.07 60.33 -3.07 60.33 -3.07"/><polygon class="cls-5" points="58.5 3.14 58.26 2.69 57.96 2.39 57.61 2.29 57.27 2.24 56.87 2.34 56.48 2.49 56.09 2.69 55.74 2.99 55.45 3.24 55.4 3.29 55.66 3.34 55.93 3.39 55.93 3.44 55.52 3.89 55.41 4.44 55.47 4.99 55.73 5.44 56.06 5.84 56.49 6.19 56.98 6.34 57.52 6.44 58.11 6.34 58.7 5.99 58.99 5.39 59.09 4.69 58.84 4.04 58.75 3.89 58.6 3.74 58.45 3.69 58.26 3.74 58.11 3.84 57.96 3.94 57.91 4.14 57.96 4.34 57.86 4.59 57.96 4.84 58.01 5 57.61 5.1 57.12 5.1 56.73 4.89 56.23 4.52 55.93 4.04 55.93 3.79 55.94 4.04 56.35 3.74 56.59 3.54 56.81 3.34 57.06 3.14 57.26 3.04 57.51 2.99 57.76 3.04 57.96 3.19 58.21 3.75 58.26 4.1 58.35 4.1 58.4 4.1 58.5 3.75 58.55 3.54 58.6 3.37 58.55 3.28 58.5 3.14 58.5 3.14 58.5 3.14"/><polygon class="cls-5" points="56.93 7.74 56.93 7.64 56.93 7.6 56.93 7.5 56.93 7.39 56.93 7.34 56.93 7.29 56.93 7.1 56.93 7.1 56.93 7.1 56.53 7.1 56.28 6.7 55.99 6.42 55.54 6.18 55.1 6.09 54.66 6.14 54.21 6.24 53.82 6.44 53.48 6.79 53.13 7.44 52.88 8.1 52.79 8.79 52.88 9.55 53.03 9.9 53.18 10.15 53.43 10.4 53.72 10.55 54.07 10.88 54.41 11.1 54.76 11.1 55.1 11.1 55.64 10.77 56.09 10.34 56.33 9.79 56.43 9.22 56.48 9.06 56.43 8.9 56.33 8.98 56.18 9.1 56.04 9.1 55.89 8.92 55.74 8.86 55.64 8.95 55.54 9.02 55.49 9.16 55.4 9.3 55.3 9.5 55.1 9.7 54.81 9.75 54.51 9.7 54.21 9.65 53.72 9.2 53.62 8.49 53.82 7.74 54.21 7.14 54.41 6.99 54.61 6.84 54.85 6.74 55.1 6.69 55.35 6.74 55.59 6.84 55.79 6.99 55.99 7.2 56.18 7.5 56.14 7.02 56.38 7.1 56.33 7.1 56.28 7.1 56.23 7.1 55.93 7.1 55.93 7.84 56.11 8.5 56.33 9.1 56.38 9.1 56.43 9.1 56.7 8.5 56.93 7.84 56.93 7.74 56.93 7.74 56.93 7.74"/><polygon class="cls-5" points="35.94 9.2 35.34 9.1 34.7 9.1 34.01 9.05 33.37 8.87 32.68 8.43 32.04 7.59 31.4 6.34 30.81 4.49 31.8 4.54 32.73 4.69 33.52 4.94 34.31 5.24 35.1 5.69 35.89 6.14 36.72 6.64 37.61 7.25 38.15 7.5 38.74 7.6 39.43 7.64 40.12 7.6 40.72 7.5 41.3 7.29 41.75 7.04 42 6.79 41.7 7.99 41.26 8.95 40.61 9.75 39.83 10.4 38.94 10.9 37.95 11.3 36.92 11.55 35.84 11.8 34.75 12 33.67 12.2 32.63 12.4 31.65 12.65 30.81 12.95 30.02 13.35 29.4 13.85 28.93 14.5 28.93 13.9 29.25 13.15 29.76 12.4 30.56 11.55 31.59 10.8 32.83 10.15 34.26 9.57 35.94 9.2 35.94 9.2"/><polygon class="cls-5" points="54.46 -8.12 54.31 -8.32 54.11 -8.52 53.97 -8.72 53.77 -8.92 54.61 -9.72 55.25 -10.62 55.79 -11.67 55.91 -12.72 55.93 -13.83 55.93 -14.98 55.91 -16.08 55.66 -17.18 55.4 -17.83 55.13 -18.48 54.75 -19.08 54.35 -19.73 53.91 -20.28 53.47 -20.83 52.93 -21.28 52.34 -21.68 52.24 -21.93 52.15 -22.13 52.05 -22.39 51.9 -22.58 51.75 -22.79 51.55 -22.9 51.36 -22.9 51.21 -22.74 51.11 -22.61 50.99 -22.5 50.93 -22.39 50.93 -22.9 50.93 -22.9 50.93 -22.9 50.93 -22.9 50.93 -22.9 50.87 -22.9 50.81 -22.9 50.93 -22.38 50.93 -22.13 50.93 -22.03 50.93 -21.98 50.93 -21.88 50.92 -21.83 50.97 -21.78 51.09 -21.73 51.17 -21.63 51.48 -21.58 51.93 -20.68 51.93 -19.83 51.67 -18.93 51.41 -18.03 51.26 -18.13 51.18 -18.28 51.08 -18.38 51.02 -18.48 50.57 -18.83 50.52 -18.86 50.42 -18.9 50.37 -18.9 50.27 -18.9 49.88 -18.9 49.83 -18.9 49.78 -18.9 49.68 -18.9 49.63 -18.9 49.48 -19.39 49.34 -19.84 49.19 -20.28 48.99 -20.73 48.84 -21.13 48.65 -21.48 48.4 -21.83 48.16 -22.13 47.86 -22.43 47.51 -22.73 47.17 -22.98 46.82 -23.19 46.43 -23.39 46.08 -23.64 45.69 -23.84 45.3 -24.04 44.95 -24.19 44.56 -24.34 44.11 -24.49 43.85 -24.59 43.93 -24.64 43.93 -24.69 43.93 -24.69 43.75 -24.74 43.59 -24.84 43.46 -24.89 43.29 -24.94 43.14 -24.89 43.08 -24.84 43.01 -24.79 42.93 -24.69 42.93 -24.64 42.93 -24.35 42.93 -24.35 42.93 -24.35 42.93 -24.35 42.93 -24.54 42.93 -24.49 42.93 -24.44 42.93 -24.39 43.3 -23.48 43.51 -22.48 43.62 -21.53 43.57 -20.53 43.32 -20.83 43.08 -21.13 42.83 -21.38 42.54 -21.68 42.24 -21.93 41.95 -22.18 41.65 -22.43 41.3 -22.68 40.47 -23.23 39.53 -23.69 38.65 -24.09 37.66 -24.34 36.67 -24.54 35.74 -24.59 34.75 -24.49 33.77 -24.29 33.67 -25.09 33.52 -25.9 33.42 -25.9 33.27 -25.9 33.13 -25.9 32.98 -25.9 32.88 -25.04 32.83 -24.57 32.78 -24.22 32.83 -23.98 32.88 -23.83 32.98 -23.71 33.08 -23.65 33.13 -23.59 33.22 -23.49 33.27 -23.43 33.72 -23.29 33.82 -23.13 33.82 -23.13 34.16 -22.39 34.41 -21.53 34.6 -20.73 34.8 -19.88 34.95 -19.53 35.14 -19.18 35.44 -18.88 35.74 -18.81 35.64 -18.9 35.54 -18.9 35.49 -18.71 35.39 -18.6 34.85 -18.31 34.36 -18 33.87 -17.59 33.42 -17.23 32.98 -16.78 32.53 -16.38 32.04 -15.98 31.55 -15.79 31.3 -15.9 31.05 -15.9 30.76 -15.87 30.51 -15.9 30.42 -15.9 30.37 -15.9 30.27 -15.71 30.1 -15.6 29.93 -15.43 29.93 -15.38 30.1 -15.28 30.21 -15.23 30.34 -15.13 30.45 -15.03 30.55 -14.98 30.66 -14.93 31 -14.38 31.4 -13.88 31.84 -13.43 32.34 -13.08 32.83 -12.78 33.37 -12.52 33.96 -12.32 34.55 -12.12 35.14 -11.97 35.74 -11.88 36.38 -11.78 37.02 -11.72 37.61 -11.67 38.25 -11.62 38.84 -11.52 39.43 -11.47 39.88 -11.37 40.27 -11.22 40.56 -10.97 40.76 -10.67 40.72 -9.97 40.42 -9.27 40.03 -8.67 39.53 -8.12 39.09 -7.72 38.65 -7.27 38.15 -6.87 37.66 -6.42 37.31 -5.92 37.02 -5.42 36.9 -4.82 36.93 -4.22 36.93 -3.9 36.93 -3.9 36.93 -3.9 36.93 -4.12 36.93 -4.07 36.93 -4.07 36.93 -4.07 37.07 -4.01 37.17 -3.97 37.29 -4.41 37.41 -4.9 37.51 -4.9 38 -4.37 38.5 -3.9 39.04 -3.9 39.58 -3.78 40.07 -3.8 40.61 -3.81 41.16 -4.35 41.65 -4.9 41.9 -4.9 42.19 -4.9 42.49 -4.9 42.78 -4.33 43.03 -3.97 43.23 -3.69 43.42 -3.48 43.57 -3.19 43.82 -2.63 44.01 -2.02 44.16 -1.42 44.41 -0.82 44.61 -0.27 44.9 0.29 45.25 0.79 45.64 1.24 46.04 1.59 46.53 1.84 46.97 2.52 47.46 3.1 47.96 3.1 48.45 2.52 48.84 2.03 49.24 1.51 49.63 1.3 49.93 1.09 49.93 0.89 49.59 0.74 49.71 0.89 49.89 1.04 50.16 1.14 50.44 1.19 50.72 1.24 51.01 1.29 51.36 1.24 51.65 1.19 52.05 1.04 52.39 0.84 52.74 0.64 53.08 0.44 53.38 0.19 53.72 0.04 54.11 -0.11 54.51 -0.17 54.71 -0.21 54.81 -0.31 54.89 -0.41 54.93 -0.61 54.93 -0.76 54.93 -0.86 54.93 -0.91 54.93 -1.01 54.93 -1.07 54.93 -1.11 54.93 -1.16 54.93 -1.21 54.82 -1.42 54.69 -1.52 54.58 -1.62 54.37 -1.67 53.87 -1.77 53.43 -1.97 53.03 -2.26 52.74 -2.62 52.44 -3.07 52.15 -3.47 51.85 -3.92 51.55 -4.58 51.5 -4.9 51.5 -4.9 51.45 -4.9 51.4 -4.9 51.75 -4.9 52.05 -4.61 52.39 -4.43 52.69 -4.28 52.98 -4.1 53.23 -3.88 53.48 -3.67 53.72 -3.42 53.77 -3.32 53.82 -3.22 53.87 -3.12 53.93 -3.02 53.93 -2.97 53.93 -2.92 53.93 -2.87 54.05 -2.82 54.23 -3.33 54.41 -3.9 54.56 -3.9 54.71 -3.9 54.82 -3.9 54.93 -3.9 54.93 -3.22 54.66 -3.37 54.93 -4.52 54.93 -5.77 54.82 -6.97 54.46 -8.12 54.46 -8.12"/><polygon class="cls-5" points="50.57 -4.82 50.42 -5.36 50.22 -5.9 50.08 -5.9 49.88 -5.9 49.78 -5.9 49.73 -5.9 49.8 -5.38 49.93 -4.82 49.93 -4.77 49.8 -4.67 49.77 -4.62 49.82 -4.75 49.83 -4.9 49.88 -4.9 49.93 -4.9 49.98 -4.66 49.95 -4.51 49.93 -4.37 49.93 -4.32 49.93 -4.27 49.95 -4.56 49.98 -4.9 50.02 -4.9 50.13 -4.9 50.22 -4.9 50.37 -4.9 50.47 -4.9 50.57 -4.61 50.72 -4.34 50.81 -4.2 50.91 -4.06 51.01 -3.94 51.21 -3.53 51.45 -3.07 51.7 -2.62 51.95 -2.22 52.24 -1.81 52.54 -1.46 52.88 -1.21 53.28 -0.96 53.08 -0.86 52.84 -0.76 52.64 -0.61 52.44 -0.51 52.24 -0.36 52.05 -0.21 51.8 -0.11 51.6 -0.01 51.16 0.09 50.77 0.14 50.32 0.09 49.93 -0.11 49.53 -0.31 49.24 -0.66 49.06 -1.07 48.93 -1.52 48.93 -1.9 48.88 -1.9 48.75 -1.9 48.7 -1.9 48.65 -1.9 48.78 -1.9 48.93 -1.9 48.93 -1.52 48.66 -0.91 48.66 -0.31 48.9 0.19 49.22 1.37 49.09 2.1 48.94 2.1 48.79 1.37 48.7 1.03 48.35 1.08 48.01 1.14 47.61 1.14 47.27 1.06 46.87 0.9 46.53 0.69 46.23 0.39 45.93 0.09 45.49 -0.71 45.15 -1.56 44.9 -2.42 44.66 -3.27 44.46 -3.72 44.16 -4.12 43.82 -4.42 43.42 -4.62 42.98 -4.82 42.49 -5.36 42.05 -5.9 41.55 -5.9 41.11 -5.36 40.66 -5.06 40.22 -4.84 39.83 -4.73 39.38 -4.6 38.94 -4.53 37.93 -4.48 36.93 -4.42 36.93 -4.42 36.93 -4.42 36.93 -4.42 36.93 -4.42 36.93 -4.92 37.64 -5.32 38.17 -5.72 38.6 -6.07 39.02 -6.37 39.45 -6.72 39.81 -7.02 40.16 -7.37 40.51 -7.77 40.86 -8.22 41.16 -8.67 41.45 -9.12 41.74 -9.62 41.93 -10.12 41.93 -10.67 41.69 -11.17 41.5 -11.47 41.28 -11.72 40.97 -11.92 40.72 -12.12 40.37 -12.28 40.08 -12.38 39.73 -12.47 39.38 -12.52 38.89 -12.58 38.35 -12.73 37.81 -12.9 37.26 -12.9 36.72 -12.84 36.18 -12.83 35.64 -12.86 35.1 -12.94 34.6 -13.03 34.06 -13.13 33.57 -13.28 33.08 -13.48 32.63 -13.73 32.19 -13.98 31.8 -14.28 31.4 -14.26 31.5 -13.9 31.6 -13.9 31.65 -13.9 31.75 -14.36 32.34 -14.82 32.88 -15.28 33.37 -15.73 33.82 -16.15 34.31 -16.57 34.8 -16.97 35.34 -17.33 35.89 -17.58 36.23 -17.24 36.58 -16.9 36.92 -16.9 37.31 -16.9 37.66 -17.24 38 -17.36 38.35 -17.32 38.69 -17.18 38.84 -17.1 39.04 -17.07 39.19 -17.12 39.58 -17.23 39.93 -17.38 39.93 -17.58 39.63 -17.73 39.41 -17.88 39.05 -18.18 38.72 -18.43 38.37 -18.63 38.01 -18.73 37.66 -18.84 37.26 -18.9 36.87 -18.9 36.48 -18.84 36.23 -18.98 36.03 -19.18 35.84 -19.38 35.69 -19.63 35.39 -20.68 35.2 -21.73 34.95 -22.89 34.45 -23.9 34.45 -23.9 35.14 -23.9 35.84 -23.79 36.53 -23.71 37.17 -23.55 37.86 -23.39 38.5 -23.19 39.14 -22.89 39.73 -22.63 40.32 -22.29 40.91 -21.88 41.45 -21.48 41.95 -20.98 42.39 -20.48 42.83 -19.93 43.18 -19.38 43.52 -18.73 43.62 -18.58 43.77 -18.48 43.92 -18.43 44.06 -18.48 44.21 -18.53 44.31 -18.68 44.36 -18.83 44.31 -19.03 44.21 -19.28 44.16 -19.48 44.06 -19.73 43.92 -19.93 44.05 -20.78 43.93 -21.68 43.93 -22.58 43.91 -23.48 43.93 -23.54 43.93 -23.54 43.93 -23.54 43.93 -23.59 44.66 -23.29 45.27 -22.93 45.9 -22.58 46.46 -22.23 46.96 -21.78 47.41 -21.33 47.76 -20.78 48.05 -20.18 48.3 -19.43 48.64 -18.68 48.93 -17.93 48.93 -17.13 48.93 -17.08 48.64 -16.98 48.49 -16.93 48.71 -16.88 48.93 -16.63 48.93 -16.38 48.72 -16.18 48.7 -15.99 48.79 -15.9 48.99 -15.9 49.24 -15.82 49.38 -15.9 49.34 -15.9 49.53 -16.46 49.76 -17 49.93 -17.53 49.93 -17.98 49.93 -17.98 49.93 -16.9 49.93 -16.9 49.93 -16.9 50.13 -16.9 50.22 -17.41 50.42 -17.45 50.62 -17.29 50.77 -17.11 50.87 -16.84 50.91 -16.71 51.06 -16.28 51.21 -15.9 51.4 -15.9 51.55 -16.34 51.77 -16.61 51.93 -16.88 51.93 -17.03 52.26 -17.83 53.17 -18.68 53.93 -19.58 53.93 -20.48 53.6 -20.08 53.62 -19.63 53.74 -19.13 53.95 -18.68 54.21 -18.18 54.43 -17.68 54.67 -17.18 54.86 -16.68 55.16 -15.63 55.25 -14.53 55.1 -13.43 54.85 -12.32 54.71 -11.92 54.46 -11.52 54.26 -11.17 53.97 -10.82 53.72 -10.47 53.43 -10.17 53.65 -9.82 53.93 -9.52 53.93 -9.52 53.93 -9.58 53.93 -9.58 53.93 -9.9 52.61 -9.9 52.24 -9.9 52 -9.9 51.75 -9.9 51.5 -9.9 51.26 -9.59 51.06 -9.74 50.81 -9.9 50.77 -9.9 50.83 -9.48 50.93 -9.02 50.93 -8.92 50.93 -8.87 50.83 -8.86 50.77 -8.9 50.81 -8.9 51.21 -8.9 51.65 -8.76 52.05 -8.62 52.44 -8.49 52.79 -8.28 53.13 -8.02 53.38 -7.72 53.57 -7.32 53.8 -6.62 53.93 -5.92 53.93 -5.17 53.9 -4.42 53.56 -4.67 53.18 -4.87 52.78 -5.02 52.34 -5.07 51.9 -5.12 51.45 -5.07 51.01 -4.97 50.57 -4.82 50.57 -4.82"/><polygon class="cls-5" points="38.74 -17.33 39.83 -16.88 40.91 -16.23 41.9 -15.48 42.73 -14.53 43.45 -13.53 43.93 -12.38 43.93 -11.17 43.76 -9.97 43.93 -9.67 43.93 -9.67 43.93 -9.67 43.93 -9.67 43.93 -9.67 43.93 -9.52 43.63 -9.37 43.6 -9.61 43.57 -9.9 43.62 -9.9 43.62 -9.9 43.67 -9.9 44.11 -9.46 44.46 -9.14 44.8 -8.81 45.1 -8.46 45.35 -8.14 45.59 -7.78 45.84 -7.43 46.04 -7.07 46.53 -6.27 46.97 -5.52 47.32 -4.72 47.66 -3.87 47.91 -3.02 48.1 -2.16 48.2 -1.26 48.25 -0.36 48.3 -0.06 48.4 0.24 48.6 0.54 48.84 0.84 48.99 1.47 49.14 2.1 49.29 2.1 49.93 1.32 49.93 1 49.93 0.69 49.93 0.54 49.93 0.39 49.63 0.19 49.44 -0.01 49.24 -0.17 49.09 -0.36 48.93 -1.01 48.93 -1.62 48.96 -2.22 48.9 -2.77 48.58 -3.82 48.24 -4.87 47.8 -5.87 47.31 -6.87 46.77 -7.77 46.09 -8.62 45.3 -9.32 44.36 -10.36 43.72 -10.9 43.72 -10.9 43.62 -10.9 43.97 -10.01 43.77 -10.19 43.93 -11.28 43.93 -12.58 43.77 -13.78 43.21 -14.93 42.38 -15.88 41.27 -16.73 40.11 -16.91 38.89 -16.9 38.79 -16.9 38.74 -16.9 38.31 -17.27 37.93 -17.63 37.93 -17.53 37.93 -17.48 38.31 -17.38 38.74 -17.33 38.74 -17.33 38.74 -17.33"/><polygon class="cls-5" points="21.75 -17.83 21.6 -13.83 20.96 -10.47 20.02 -7.77 18.69 -5.62 17.16 -3.92 15.49 -2.67 13.66 -1.67 11.84 -0.96 10.02 -0.46 8.29 -0.01 6.72 0.34 5.39 0.79 4.4 1.34 3.71 2.09 3.46 3.04 3.76 4.39 4.1 5.24 4.5 5.89 4.89 6.57 5.34 7.1 5.83 7.1 6.37 6.67 6.96 6.26 7.6 5.87 8.29 5.43 9.08 5.01 9.97 4.6 10.95 4.25 11.99 3.94 13.17 3.74 14.47 3.69 15.93 3.74 15.93 4.49 15.86 5.24 15.74 5.94 15.59 6.59 15.34 7.2 15.05 7.74 14.6 8.24 14.06 8.7 15.49 9.45 16.62 10.25 17.41 11.15 17.9 12.05 18.15 13 18.1 14 17.8 14.95 17.31 15.9 16.42 14.8 15.44 14.05 14.35 13.45 13.22 13.1 12.04 12.85 10.86 12.65 9.67 12.55 8.54 12.4 7.41 12.15 6.32 11.8 5.39 11.3 4.5 10.55 3.76 9.55 3.17 8.24 2.78 6.49 2.53 4.39 2.63 2.54 3.12 1.14 3.96 0.14 5.09 -0.66 6.42 -1.21 7.95 -1.67 9.62 -2.07 11.35 -2.52 13.07 -3.12 14.75 -3.87 16.32 -4.97 17.8 -6.42 19.03 -8.27 20.02 -10.67 20.66 -13.73 20.96 -17.43 20.91 -18.98 20.71 -20.48 20.32 -21.93 19.77 -23.39 19.13 -24.74 18.3 -26.04 17.36 -27.29 16.32 -28.49 15.19 -29.64 13.96 -30.69 12.63 -31.64 11.25 -32.54 9.77 -33.34 8.24 -34.1 6.67 -34.7 5.04 -35.25 3.37 -35.65 1.69 -35.95 0.01 -36.15 -1.66 -36.25 -3.33 -36.2 -5.01 -36 -6.68 -35.7 -8.26 -35.25 -9.84 -34.7 -11.37 -33.95 -12.84 -33.05 -14.22 -32.04 -15.55 -30.84 -16.74 -29.49 -17.87 -27.94 -18.91 -26.24 -20.48 -22.98 -21.66 -19.83 -22.55 -16.78 -23.04 -13.83 -23.24 -10.97 -23.09 -8.17 -22.7 -5.47 -22.06 -2.87 -21.17 -0.36 -20.04 2.09 -18.76 4.44 -17.23 6.74 -15.6 8.95 -13.78 11.05 -11.86 13.1 -9.84 15.05 -7.28 17.3 -4.67 19.51 -2.01 21.56 0.71 23.51 3.37 25.36 5.98 27.11 8.49 28.81 10.9 30.36 13.17 31.86 15.24 33.27 17.11 34.57 18.69 35.82 19.97 36.92 20.91 38.02 21.55 39.02 21.75 39.93 20.86 38.87 19.92 37.92 18.98 36.97 18.05 36.12 17.11 35.32 16.18 34.57 15.19 33.87 14.21 33.22 13.22 32.57 12.23 31.97 11.2 31.37 10.16 30.77 9.18 30.22 8.14 29.66 7.11 29.16 6.03 28.61 4.99 28.06 3.96 27.51 2.87 26.91 1.84 26.36 0.76 25.71 -0.33 25.06 -1.36 24.41 -2.45 23.66 -3.53 22.91 -4.61 22.11 -5.7 21.21 -6.74 20.31 -7.82 19.31 -8.9 18.25 -9.94 17.1 -11.02 15.9 -13.09 13.45 -15.06 11.05 -16.93 8.7 -18.66 6.34 -20.19 4.04 -21.52 1.69 -22.65 -0.66 -23.59 -3.12 -24.23 -5.62 -24.57 -8.22 -24.67 -10.97 -24.42 -13.83 -23.78 -16.83 -22.85 -20.03 -21.52 -23.48 -19.74 -27.09 -18.71 -28.89 -17.53 -30.49 -16.29 -31.94 -14.96 -33.24 -13.53 -34.35 -12.01 -35.35 -10.48 -36.15 -8.85 -36.85 -7.23 -37.4 -5.5 -37.8 -3.83 -37.92 -2.05 -37.9 -0.33 -37.9 1.4 -37.92 3.12 -37.69 4.84 -37.37 6.52 -36.88 8.14 -36.29 9.72 -35.59 11.25 -34.74 12.73 -33.84 14.11 -32.79 15.39 -31.69 16.62 -30.49 17.7 -29.19 18.69 -27.79 19.58 -26.34 20.32 -24.79 20.91 -23.13 21.35 -21.43 21.64 -19.68 21.75 -17.83 21.75 -17.83"/><polygon class="cls-5" points="9.97 9.2 10.56 9.1 11.2 9.1 11.89 9.05 12.58 8.87 13.22 8.43 13.91 7.59 14.55 6.34 15.14 4.49 14.11 4.54 13.22 4.69 12.38 4.94 11.6 5.24 10.8 5.69 10.02 6.14 9.18 6.64 8.29 7.25 7.8 7.5 7.16 7.6 6.52 7.64 5.83 7.6 5.19 7.5 4.6 7.29 4.15 7.04 3.91 6.79 4.2 7.99 4.65 8.95 5.29 9.75 6.08 10.4 6.96 10.9 7.95 11.3 8.98 11.55 10.07 11.8 11.2 12 12.28 12.2 13.32 12.4 14.3 12.65 15.14 12.95 15.93 13.35 16 13.85 15.93 14.5 15.93 13.9 16.15 13.15 15.87 12.4 15.21 11.55 14.29 10.8 13.09 10.15 11.63 9.57 9.97 9.2 9.97 9.2"/><polygon class="cls-5" points="-8.39 -3.37 -8.07 -3.22 -8.07 -3.07 -8.07 -2.92 -8.39 -3.38 -8.66 -3.9 -8.51 -3.9 -8.36 -3.33 -8.21 -3.13 -8.14 -3.02 -8.07 -2.92 -8.07 -2.97 -8.04 -3.02 -7.96 -3.12 -7.49 -3.22 -7.07 -3.31 -7.07 -3.42 -7.2 -3.67 -7.14 -3.87 -6.99 -4.07 -6.74 -4.22 -6.46 -4.32 -6.13 -4.61 -5.85 -4.9 -5.5 -4.9 -5.55 -4.9 -5.55 -4.9 -5.07 -4.9 -5.07 -4.32 -5.63 -3.92 -6.06 -3.47 -6.42 -3.07 -6.75 -2.62 -7.11 -2.26 -7.51 -1.97 -7.96 -1.77 -8.19 -1.67 -8.07 -1.62 -8.07 -1.52 -8.07 -1.42 -8.07 -1.21 -8.07 -1.16 -8.07 -1.11 -8.07 -1.07 -8.07 -1.01 -8.54 -0.91 -8.83 -0.86 -9.07 -0.76 -9.07 -0.61 -9.01 -0.41 -8.91 -0.31 -8.76 -0.21 -8.56 -0.17 -8.16 -0.11 -7.77 0.04 -7.47 0.19 -7.13 0.44 -6.78 0.64 -6.49 0.84 -6.09 1.04 -5.7 1.19 -5.41 1.24 -5.11 1.29 -4.81 1.24 -4.47 1.19 -4.22 1.14 -3.93 1.04 -3.68 0.89 -3.2 0.74 -3.07 0.89 -3.07 1.09 -3.2 1.24 -3.22 1.39 -2.88 1.79 -2.47 2.52 -2.05 3.1 -1.56 3.1 -1.07 2.52 -0.57 2.08 -0.13 1.71 0.26 1.3 0.71 0.82 1.05 0.3 1.3 -0.26 1.54 -0.81 1.74 -1.41 1.94 -2.02 2.13 -2.62 2.33 -3.17 2.48 -3.42 2.68 -3.57 2.92 -3.72 3.17 -4.33 3.42 -4.9 3.71 -4.9 4.01 -4.9 4.25 -4.9 4.75 -4.33 5.29 -4.03 5.83 -3.85 6.37 -3.85 6.92 -3.9 7.46 -3.9 7.95 -4.37 8.44 -4.9 8.54 -4.9 8.64 -4.41 8.76 -4.24 8.93 -4.01 8.93 -4.07 8.93 -4.07 8.93 -4.07 8.93 -4.12 8.93 -4.17 8.93 -4.17 8.93 -4.17 8.93 -4.22 8.98 -4.82 8.91 -5.42 8.6 -5.92 8.25 -6.42 7.8 -6.87 7.31 -7.27 6.82 -7.72 6.42 -8.12 5.93 -8.67 5.49 -9.27 5.24 -9.97 5.19 -10.67 5.34 -10.97 5.63 -11.22 6.03 -11.37 6.47 -11.47 7.06 -11.52 7.7 -11.62 8.29 -11.67 8.93 -11.72 9.57 -11.78 10.16 -11.88 10.8 -11.97 11.4 -12.12 11.99 -12.32 12.53 -12.52 13.07 -12.78 13.56 -13.08 14.06 -13.43 14.5 -13.88 14.89 -14.38 15.24 -14.93 15.34 -14.98 15.44 -15.03 15.54 -15.13 15.64 -15.23 15.28 -15.28 14.93 -15.38 14.93 -15.43 14.93 -15.53 15.28 -15.71 15.59 -15.9 15.54 -15.9 15.44 -15.9 15.19 -15.87 14.89 -15.9 14.65 -15.9 14.4 -15.79 13.91 -16.08 13.42 -16.43 12.93 -16.8 12.48 -17.24 12.04 -17.59 11.54 -17.98 11.05 -18.28 10.51 -18.53 10.46 -18.71 10.36 -18.9 10.31 -18.9 10.21 -18.81 10.51 -18.95 10.8 -19.21 11.01 -19.55 11.15 -19.89 11.35 -20.74 11.5 -21.54 11.74 -22.39 12.09 -23.13 12.09 -23.13 12.23 -23.29 12.68 -23.43 12.73 -23.48 12.78 -23.59 12.88 -23.64 12.93 -23.69 13.07 -23.79 13.12 -23.89 13.17 -24.04 13.12 -24.19 13.02 -25.04 12.93 -25.9 12.78 -25.9 12.63 -25.9 12.48 -25.9 12.38 -25.9 12.23 -25.09 12.14 -24.66 11.2 -24.67 10.21 -24.68 9.23 -24.58 8.29 -24.36 7.31 -24.1 6.37 -23.69 5.48 -23.24 4.6 -22.68 4.3 -22.43 3.96 -22.18 3.66 -21.93 3.42 -21.68 3.12 -21.38 2.87 -21.13 2.63 -20.83 2.38 -20.53 2.33 -21.53 2.43 -22.48 2.63 -23.48 3.4 -24.39 3.93 -24.44 3.93 -24.49 3.93 -24.54 3.93 -24.59 3.93 -24.59 3.93 -24.59 3.93 -24.59 3.93 -24.64 3.4 -24.69 3.11 -24.79 2.94 -24.84 2.83 -24.89 2.66 -24.94 2.49 -24.89 2.19 -24.84 1.93 -24.74 1.93 -24.69 1.93 -24.69 1.93 -24.64 1.93 -24.59 1.69 -24.49 1.32 -24.34 0.96 -24.19 0.59 -24.04 0.2 -23.84 -0.14 -23.64 -0.53 -23.39 -0.92 -23.19 -1.27 -22.98 -1.61 -22.73 -1.91 -22.43 -2.2 -22.13 -2.45 -21.83 -2.69 -21.48 -2.89 -21.13 -3.09 -20.73 -3.24 -20.28 -3.38 -19.83 -3.53 -19.39 -3.68 -18.9 -3.73 -18.9 -3.83 -18.9 -3.88 -18.9 -3.98 -18.9 -4.37 -18.9 -4.42 -18.9 -4.52 -18.9 -4.57 -18.9 -4.61 -18.9 -5.06 -18.52 -5.11 -18.39 -5.21 -18.29 -5.26 -18.14 -5.36 -18.03 -5.5 -18.93 -5.6 -19.83 -5.55 -20.68 -5.31 -21.58 -5.21 -21.63 -5.06 -21.73 -4.96 -21.78 -4.86 -21.83 -4.96 -21.88 -5.07 -21.98 -5.07 -22.03 -5.07 -22.13 -4.96 -22.52 -4.86 -22.9 -4.96 -22.9 -5.07 -22.9 -5.07 -22.9 -5.07 -22.9 -5.07 -22.9 -5.07 -22.9 -5.07 -22.39 -5.11 -22.48 -5.16 -22.58 -5.26 -22.74 -5.45 -22.9 -5.65 -22.9 -5.8 -22.79 -5.95 -22.61 -6.09 -22.4 -6.19 -22.14 -6.29 -21.94 -6.39 -21.69 -6.98 -21.28 -7.52 -20.83 -8.02 -20.28 -8.46 -19.73 -8.85 -19.08 -9.2 -18.48 -9.49 -17.83 -9.79 -17.18 -10.18 -16.08 -10.33 -14.98 -10.38 -13.83 -10.18 -12.72 -9.84 -11.67 -9.35 -10.62 -8.71 -9.72 -7.87 -8.92 -8.06 -8.72 -8.21 -8.52 -8.36 -8.32 -8.51 -8.12 -9 -6.97 -9.3 -5.77 -9.04 -4.52 -8.39 -3.37 -8.39 -3.37"/><polygon class="cls-5" points="-8.02 -4.42 -8.06 -5.17 -8.02 -5.92 -7.87 -6.62 -7.67 -7.32 -7.47 -7.72 -7.18 -8.02 -6.88 -8.27 -6.49 -8.47 -6.14 -8.57 -5.75 -8.76 -5.31 -8.9 -4.91 -8.9 -4.81 -8.9 -4.92 -8.86 -5.07 -8.87 -5.07 -8.92 -5.07 -9.02 -4.92 -9.48 -4.81 -9.9 -4.91 -9.9 -5.16 -9.63 -5.36 -9.55 -5.6 -9.75 -5.85 -9.9 -6.09 -9.9 -6.34 -9.9 -6.54 -9.9 -6.9 -9.64 -7.07 -9.45 -7.07 -9.47 -7.07 -9.9 -6.88 -9.9 -7.18 -10.01 -7.52 -10.27 -7.82 -10.52 -8.06 -10.85 -8.31 -11.19 -8.56 -11.53 -8.75 -11.93 -8.9 -12.32 -9.2 -13.43 -9.3 -14.53 -9.2 -15.63 -8.9 -16.68 -8.71 -17.18 -8.46 -17.68 -8.21 -18.18 -7.97 -18.68 -7.67 -19.13 -7.33 -19.63 -7.25 -20.08 -7.07 -20.48 -7.07 -19.58 -6.7 -18.68 -6.46 -17.83 -6.07 -17.03 -6.07 -16.88 -5.86 -16.78 -5.68 -16.34 -5.45 -15.9 -5.31 -15.9 -5.16 -16.29 -5.01 -16.56 -4.91 -16.79 -4.81 -17.14 -4.67 -17.41 -4.52 -17.72 -4.32 -17.41 -4.22 -16.9 -3.88 -16.9 -3.07 -16.9 -3.07 -16.9 -3.07 -17.98 -3.07 -17.98 -3.07 -17.53 -3.35 -17.08 -3.39 -16.46 -3.38 -15.9 -3.43 -15.9 -3.28 -15.82 -3.09 -15.9 -2.84 -15.9 -2.07 -15.61 -2.07 -15.97 -2.07 -16.38 -2.07 -16.63 -2.31 -16.88 -2.43 -16.93 -2.25 -16.98 -2.07 -17.08 -2.07 -17.13 -2.07 -17.93 -2.23 -18.68 -2.22 -19.43 -2.09 -20.18 -1.82 -20.78 -1.45 -21.33 -1.01 -21.78 -0.52 -22.23 -0.03 -22.58 0.56 -22.93 1.22 -23.29 1.93 -23.59 1.93 -23.54 1.93 -23.54 1.93 -23.54 1.93 -23.48 1.71 -22.58 1.6 -21.68 1.72 -20.78 2 -19.93 1.9 -19.73 1.79 -19.48 1.69 -19.28 1.59 -19.03 1.54 -18.83 1.59 -18.68 1.69 -18.53 1.84 -18.48 2.04 -18.43 2.18 -18.48 2.33 -18.58 2.38 -18.73 2.73 -19.38 3.07 -19.93 3.51 -20.48 3.96 -20.98 4.45 -21.48 4.99 -21.88 5.58 -22.28 6.17 -22.63 6.76 -22.88 7.41 -23.19 8.05 -23.39 8.74 -23.54 9.38 -23.69 10.07 -23.79 10.76 -23.9 11.45 -23.9 11.45 -23.9 10.95 -22.89 10.71 -21.76 10.56 -20.7 10.26 -19.64 10.12 -19.38 9.97 -19.18 9.72 -18.98 9.47 -18.84 9.08 -18.9 8.69 -18.9 8.29 -18.84 7.9 -18.73 7.55 -18.63 7.21 -18.43 6.92 -18.18 6.62 -17.88 6.52 -17.73 6.47 -17.58 6.52 -17.38 6.62 -17.23 6.76 -17.13 6.92 -17.08 7.11 -17.13 7.26 -17.23 7.55 -17.43 7.9 -17.58 8.24 -17.24 8.59 -16.9 8.98 -16.9 9.33 -16.9 9.72 -17.24 10.07 -17.36 10.61 -17.22 11.15 -16.92 11.64 -16.55 12.14 -16.17 12.58 -15.77 13.07 -15.38 13.61 -15.03 14.21 -14.36 14.3 -13.9 14.35 -13.9 14.45 -13.9 14.55 -14.26 14.16 -14.07 13.76 -13.87 13.32 -13.67 12.88 -13.45 12.38 -13.26 11.89 -13.12 11.35 -13.02 10.86 -12.92 10.31 -12.89 9.77 -12.9 9.23 -12.9 8.64 -12.9 8.1 -12.9 7.55 -12.73 7.06 -12.63 6.52 -12.55 6.22 -12.49 5.88 -12.38 5.53 -12.28 5.24 -12.13 4.99 -11.92 4.7 -11.72 4.5 -11.47 4.72 -11.17 4.93 -10.67 4.93 -10.12 4.67 -9.62 4.68 -9.12 4.89 -8.67 5.14 -8.22 5.46 -7.77 5.79 -7.37 6.13 -7.02 6.47 -6.72 6.86 -6.37 7.21 -6.07 7.51 -5.72 7.77 -5.32 7.93 -4.92 7.93 -4.42 7.93 -4.42 7.93 -4.42 7.93 -4.42 7.93 -4.42 7.47 -4.47 7.02 -4.52 6.57 -4.57 6.13 -4.67 5.68 -4.72 5.24 -4.82 4.8 -5.36 4.35 -5.9 3.91 -5.9 3.42 -5.36 2.97 -5.06 2.53 -4.74 2.13 -4.48 1.74 -4.15 1.45 -3.73 1.25 -3.27 1 -2.42 0.76 -1.57 0.41 -0.72 -0.03 0.09 -0.33 0.39 -0.62 0.69 -0.97 0.89 -1.31 1.04 -1.71 1.09 -2.05 1.04 -2.4 0.89 -2.74 0.64 -2.84 1.37 -2.99 2.1 -3.14 2.1 -3.24 1.37 -2.89 0.58 -2.65 -0.12 -2.26 -0.82 -2.07 -1.52 -2.07 -1.9 -2.57 -1.9 -2.69 -1.9 -2.79 -1.9 -2.84 -1.9 -2.99 -1.9 -3.07 -1.9 -3.07 -1.52 -3.13 -1.07 -3.35 -0.66 -3.64 -0.31 -3.98 -0.11 -4.37 0.09 -4.82 0.14 -5.25 0.09 -5.7 -0.01 -5.9 -0.11 -6.09 -0.21 -6.29 -0.36 -6.54 -0.51 -6.74 -0.61 -6.93 -0.76 -7.18 -0.86 -7.37 -0.96 -6.98 -1.21 -6.64 -1.46 -6.34 -1.81 -6.04 -2.22 -5.75 -2.62 -5.5 -3.07 -5.31 -3.52 -5.06 -3.92 -4.96 -4.01 -4.86 -4.12 -4.76 -4.17 -4.67 -4.61 -4.57 -4.9 -4.42 -4.9 -4.32 -4.9 -4.22 -4.9 -4.12 -4.9 -4.02 -4.9 -3.55 -4.56 -3.07 -4.27 -3.07 -4.32 -3.07 -4.37 -3.07 -4.42 -3.57 -4.66 -3.98 -4.9 -3.93 -4.9 -3.88 -4.9 -3.83 -4.75 -3.47 -4.71 -3.07 -4.67 -3.07 -4.77 -3.07 -4.82 -3.42 -5.38 -3.78 -5.9 -3.88 -5.9 -3.98 -5.9 -4.12 -5.9 -4.32 -5.9 -4.47 -5.36 -4.67 -5.06 -5.11 -5.09 -5.55 -5.13 -6 -5.15 -6.39 -5.08 -6.83 -5.03 -7.28 -4.87 -7.67 -4.67 -8.02 -4.42 -8.02 -4.42"/><polygon class="cls-5" points="7.21 -17.33 6.13 -16.88 5.04 -16.23 4.05 -15.48 3.22 -14.53 2.43 -13.53 1.93 -12.38 1.93 -11.17 2.48 -9.97 2.65 -9.67 2.65 -9.67 2.65 -9.67 2.65 -9.67 2.65 -9.67 2.64 -9.52 2.61 -9.37 2.52 -9.61 2.38 -9.9 2.28 -9.9 2.28 -9.9 2.23 -9.9 1.84 -9.46 1.45 -9.14 1.15 -8.81 0.85 -8.46 0.56 -8.14 0.31 -7.78 0.11 -7.43 -0.13 -7.07 -0.57 -6.27 -1.02 -5.52 -1.41 -4.72 -1.76 -3.87 -2.01 -3.02 -2.2 -2.16 -2.3 -1.26 -2.35 -0.36 -2.4 -0.06 -2.5 0.24 -2.69 0.54 -2.94 0.84 -3.04 1.47 -3.19 2.1 -3.33 2.1 -3.48 1.52 -3.33 1.1 -3.07 0.69 -3.07 0.54 -3.33 0.39 -3.38 0.19 -3.31 -0.01 -3.25 -0.17 -3.16 -0.36 -3.07 -1.01 -3.07 -1.62 -3.08 -2.22 -3.01 -2.77 -2.68 -3.82 -2.29 -4.87 -1.9 -5.87 -1.41 -6.87 -0.82 -7.77 -0.18 -8.62 0.61 -9.32 1.54 -10.36 2.23 -10.9 2.23 -10.9 2.28 -10.9 1.93 -9.57 1.93 -9.97 1.93 -11.28 1.93 -12.58 2.13 -13.78 2.67 -14.93 3.56 -15.88 4.62 -16.73 5.79 -16.91 7.01 -16.9 7.11 -16.9 7.21 -16.9 7.07 -17.27 6.93 -17.63 6.93 -17.53 6.93 -17.48 7.07 -17.38 7.21 -17.33 7.21 -17.33 7.21 -17.33"/><polygon class="cls-5" points="94.65 -8.9 94.01 -8.31 93.32 -7.84 92.73 -7.46 92.14 -7.01 91.55 -6.54 91.05 -6.08 90.66 -5.47 90.31 -4.87 90.02 -3.77 89.97 -2.62 90.17 -1.46 90.56 -0.36 91.35 1.29 92.28 2.89 93.32 4.49 94.4 5.99 95.34 7.6 96.13 9.24 96.67 11 96.87 12.85 96.72 14.4 96.33 15.85 95.68 17.2 94.85 18.45 93.81 19.51 92.63 20.41 91.25 21.11 89.77 21.25 88.89 21.1 88 21.1 87.11 21.3 86.27 21.26 85.44 21.03 84.6 20.72 83.86 20.24 83.17 19.7 82.33 18.75 81.64 17.65 81.16 16.4 80.93 15.1 80.93 13.8 81.16 12.55 81.75 11.45 82.68 10.45 83.07 10.2 83.51 9.99 83.96 9.97 84.45 10.1 84.89 10.1 85.34 10.07 85.68 10.24 85.93 10.64 86.03 10.77 86.08 10.94 85.98 11.1 85.88 11.1 85.73 11.1 85.53 11.1 85.39 11.15 85.24 11.1 85.14 11.02 84.99 11.01 84.84 11.1 84.7 11.1 84.25 11.07 83.81 11.16 83.37 11.33 83.02 11.56 82.72 11.91 82.48 12.3 82.28 12.7 82.18 13.15 82.08 14.05 82.13 15 82.28 15.9 82.58 16.8 82.97 17.6 83.46 18.3 84.11 18.95 84.89 19.4 85.29 19.61 85.68 19.76 86.08 19.91 86.52 20.06 86.91 20.21 87.36 20.31 87.75 20.36 88.19 20.41 89.42 20.31 90.61 20.01 91.74 19.51 92.78 18.81 93.66 17.95 94.4 16.95 94.99 15.8 95.39 14.6 95.64 12.5 95.39 10.55 94.75 8.7 93.86 6.89 92.83 5.19 91.74 3.44 90.71 1.69 89.92 -0.11 89.52 -1.36 89.33 -2.67 89.38 -3.97 89.77 -5.22 90.17 -5.92 90.61 -6.52 91.15 -7.07 91.79 -7.57 92.43 -7.97 93.12 -8.27 93.86 -8.63 94.65 -8.9 94.7 -8.9 94.84 -8.73 94.93 -8.52 94.93 -8.42 94.93 -8.37 94.84 -8.61 94.7 -8.9 94.65 -8.9 94.65 -8.9 94.65 -8.9"/><polygon class="cls-5" points="124.7 -17.83 124.56 -13.83 123.92 -10.47 122.98 -7.77 121.65 -5.62 120.12 -3.92 118.45 -2.67 116.62 -1.67 114.8 -0.96 112.98 -0.46 111.25 -0.01 109.68 0.34 108.35 0.79 107.36 1.34 106.67 2.09 106.42 3.04 106.72 4.39 107.07 5.24 107.46 5.89 107.85 6.57 108.3 7.1 108.79 7.1 109.33 6.67 109.92 6.26 110.56 5.87 111.25 5.43 112.04 5.01 112.93 4.6 113.92 4.25 114.95 3.94 116.13 3.74 117.46 3.69 118.93 3.74 118.93 4.49 118.84 5.24 118.72 5.94 118.56 6.59 118.3 7.2 118.01 7.74 117.56 8.24 117.02 8.7 118.45 9.45 119.58 10.25 120.37 11.15 120.86 12.05 121.11 13 121.06 14 120.76 14.95 120.27 15.9 119.38 14.8 118.4 14.05 117.31 13.45 116.18 13.1 115 12.85 113.81 12.65 112.63 12.55 111.5 12.4 110.37 12.15 109.28 11.8 108.35 11.3 107.46 10.55 106.72 9.55 106.13 8.24 105.73 6.49 105.49 4.39 105.59 2.54 106.08 1.14 106.92 0.14 108.05 -0.66 109.38 -1.21 110.91 -1.67 112.58 -2.07 114.31 -2.52 116.03 -3.12 117.71 -3.87 119.29 -4.97 120.76 -6.42 122 -8.27 122.98 -10.67 123.62 -13.73 123.92 -17.43 123.87 -18.98 123.67 -20.48 123.28 -21.93 122.73 -23.39 122.09 -24.74 121.25 -26.04 120.32 -27.29 119.29 -28.49 118.15 -29.64 116.92 -30.69 115.59 -31.64 114.21 -32.54 112.73 -33.34 111.2 -34.1 109.63 -34.7 108 -35.25 106.33 -35.65 104.65 -35.95 102.98 -36.15 101.3 -36.25 99.62 -36.2 97.95 -36 96.27 -35.7 94.7 -35.25 93.12 -34.7 91.59 -33.95 90.12 -33.05 88.73 -32.04 87.41 -30.84 86.22 -29.49 85.09 -27.94 84.06 -26.24 82.48 -22.98 81.3 -19.83 80.41 -16.78 79.92 -13.83 79.72 -10.97 79.87 -8.17 80.26 -5.47 80.9 -2.87 81.79 -0.36 82.92 2.09 84.2 4.44 85.73 6.74 87.36 8.95 89.18 11.05 91.1 13.1 93.12 15.05 95.68 17.3 98.29 19.51 100.96 21.56 103.67 23.51 106.33 25.36 108.94 27.11 111.45 28.81 113.86 30.36 116.13 31.86 118.2 33.27 120.08 34.57 121.65 35.82 122.93 36.92 123.87 38.02 124.51 39.02 124.7 39.93 123.82 38.87 122.88 37.92 121.94 36.97 121.01 36.12 120.08 35.32 119.14 34.57 118.15 33.87 117.17 33.22 116.18 32.57 115.2 31.97 114.16 31.37 113.13 30.77 112.14 30.22 111.1 29.66 110.07 29.16 108.99 28.61 107.95 28.06 106.92 27.51 105.83 26.91 104.8 26.36 103.72 25.71 102.63 25.06 101.6 24.41 100.51 23.66 99.43 22.91 98.34 22.11 97.26 21.21 96.22 20.31 95.14 19.31 94.06 18.25 93.02 17.1 91.94 15.9 89.87 13.45 87.9 11.05 86.03 8.7 84.3 6.34 82.78 4.04 81.44 1.69 80.31 -0.66 79.38 -3.12 78.73 -5.62 78.39 -8.22 78.29 -10.97 78.54 -13.83 79.18 -16.83 80.11 -20.03 81.44 -23.48 83.22 -27.09 84.25 -28.89 85.44 -30.49 86.67 -31.94 88 -33.24 89.42 -34.35 90.95 -35.35 92.48 -36.15 94.11 -36.85 95.73 -37.4 97.46 -37.8 99.13 -37.92 100.91 -37.9 102.63 -37.9 104.36 -37.92 106.08 -37.69 107.81 -37.37 109.48 -36.88 111.1 -36.29 112.68 -35.59 114.21 -34.74 115.69 -33.84 117.07 -32.79 118.35 -31.69 119.58 -30.49 120.67 -29.19 121.65 -27.79 122.54 -26.34 123.28 -24.79 123.87 -23.13 124.31 -21.43 124.61 -19.68 124.7 -17.83 124.7 -17.83"/><polygon class="cls-5" points="88.78 -1.67 88.73 -1.92 88.78 -2.26 88.89 -2.62 89.08 -2.92 89.33 -3.48 89.72 -3.9 90.17 -3.9 90.71 -3.48 91.2 -3.05 91.55 -2.58 91.74 -2.15 91.84 -1.73 91.79 -1.27 91.69 -0.87 91.45 -0.52 91.2 -0.16 90.86 0.1 90.51 0.1 90.12 -0.01 89.77 -0.23 89.42 -0.5 89.13 -0.86 88.93 -1.26 88.78 -1.67 88.78 -1.67"/><polygon class="cls-5" points="88.59 -3.07 88.84 -3.37 89.13 -3.62 89.42 -3.77 89.82 -3.82 90.21 -3.72 90.61 -3.57 90.95 -3.37 91.25 -3.07 91.5 -2.72 91.69 -2.37 91.84 -1.97 91.89 -1.56 91.84 -1.11 91.69 -0.71 91.5 -0.36 91.2 -0.01 90.86 0.19 90.46 0.34 90.02 0.27 89.58 0.1 89.52 0.1 89.47 0.1 89.42 0.1 89.38 0.1 89.33 0.1 89.13 0.05 88.69 -0.31 88.39 -0.79 88.25 -1.37 88.44 -1.97 88.54 -2.12 88.69 -2.51 88.84 -2.9 88.98 -2.9 89.13 -2.46 89.23 -2.14 89.28 -1.9 89.6 -1.71 89.93 -1.46 89.93 -1.26 89.65 -1.01 89.61 -0.81 89.96 -0.46 89.67 -0.56 89.99 -0.41 89.99 -0.41 89.99 -0.41 89.99 -0.41 89.99 -0.41 90.42 -0.51 90.81 -0.76 91.06 -1.11 91.15 -1.56 91.1 -1.97 90.91 -2.37 90.66 -2.67 90.36 -2.92 89.97 -3.07 89.58 -3.56 89.18 -3.9 88.84 -3.9 88.78 -3.9 88.69 -3.9 88.64 -3.33 88.26 -3.07 87.93 -2.82 87.93 -2.92 88.26 -2.97 88.59 -3.07 88.59 -3.07 88.59 -3.07"/><polygon class="cls-5" points="90.67 3.14 90.76 2.69 90.98 2.39 91.29 2.29 91.66 2.24 92.05 2.34 92.44 2.49 92.78 2.69 93.12 2.99 93.47 3.24 93.2 3.29 92.93 3.34 92.93 3.39 92.93 3.44 92.93 3.89 92.93 4.44 93.1 4.99 93.04 5.44 92.73 5.84 92.34 6.19 91.87 6.34 91.34 6.44 90.8 6.34 90.21 5.99 89.87 5.39 89.82 4.69 90.07 4.04 90.17 3.89 90.31 3.74 90.46 3.69 90.66 3.74 90.8 3.84 90.95 3.94 91 4.14 90.95 4.34 91.07 4.59 90.93 4.84 90.93 5.04 91.25 5.1 91.74 5.1 92.18 4.89 92.63 4.52 92.93 4.04 92.93 3.79 92.93 4.04 92.51 3.74 92.27 3.54 92.06 3.34 91.85 3.14 91.6 3.04 91.4 2.99 91.15 3.04 90.91 3.19 90.71 3.75 90.66 4.1 90.56 4.1 90.51 4.1 90.41 3.75 90.67 3.54 90.93 3.29 90.93 3.24 90.67 3.14 90.67 3.14 90.67 3.14"/></g></g></g><g id="type"><path class="cls-6" d="M7.48,4.9C7.42,2.78,6.72,1.3,4.4,1.3A2.37,2.37,0,0,0,1.84,3.68,2.22,2.22,0,0,0,2.56,5.3,7.09,7.09,0,0,0,4.14,6L6,6.74A5.73,5.73,0,0,1,8.42,8.1a3.7,3.7,0,0,1,.92,2.58,3.69,3.69,0,0,1-.5,2A4.13,4.13,0,0,1,5,14.78a3.39,3.39,0,0,1-3.42-2.06v1.82H0V9.7H1.54c.06,2.06,1,3.72,3.26,3.72a2.56,2.56,0,0,0,2-.72,2.57,2.57,0,0,0,.68-1.84c0-1.48-.84-1.92-2.06-2.42l-2.3-.9C1.34,6.82,0,6.1,0,3.9A3.42,3.42,0,0,1,.68,1.58,4.1,4.1,0,0,1,4.26,0,3.43,3.43,0,0,1,7.48,1.58V.22H9V4.9Z"/><path class="cls-6" d="M11.78,14.54V13.22h2V1.54h-2V.22h6.3A7.39,7.39,0,0,1,20,.38c1.94.48,2.74,2.2,2.74,4.08a4.12,4.12,0,0,1-1.42,3.38c-1,.88-2.18.82-3.4.82H15.56v4.56H18v1.32Zm3.78-13v5.8h2.16a3.15,3.15,0,0,0,2.44-.68,3,3,0,0,0,.76-2.18A2.72,2.72,0,0,0,20,2.1a3.76,3.76,0,0,0-2.44-.56Z"/><path class="cls-6" d="M25,14.54V13.22h2V1.54H25V.22H36.44V4.5H34.88v-3h-6.1V6.6h3V4.42h1.44v5.64H31.74V7.92h-3v5.3h6.1V10.08h1.56v4.46Z"/><path class="cls-6" d="M50.4,5.3C50.26,3,49,1.4,46.56,1.4c-3.48,0-4.68,2.74-4.68,5.82s1,6.12,4.56,6.12a3.54,3.54,0,0,0,3.74-3.62H52c-.12,3.28-2.42,5.06-5.6,5.06a6,6,0,0,1-5-2.18,8.92,8.92,0,0,1-1.52-5.22A8.41,8.41,0,0,1,41.42,2.3,5.86,5.86,0,0,1,46.36,0a4.19,4.19,0,0,1,4.16,2.3V.22H52V5.3Z"/><path class="cls-6" d="M54.66.22h5.76V1.54h-2V13.22h2v1.32H54.66V13.22h2V1.54h-2Z"/><path class="cls-6" d="M68.6.22h2l5,13h1.44v1.32H71.74V13.22h2L72.48,9.78H66.56l-1.22,3.44h2v1.32H62.06V13.22h1.48Zm3.32,8.24L69.54,1.78,67.12,8.46Z"/><path class="cls-6" d="M79,14.54V13.22h2.06V1.54H79V.22h6.2V1.54H82.8V13.1h5.44V9.86h1.62v4.68Z"/></g></svg>